<svg width="178" height="65" viewBox="0 0 178 65" fill="none" xmlns="http://www.w3.org/2000/svg">
<path d="M33.5879 49.576C33.5879 49.5333 33.5772 49.4907 33.5559 49.448C33.5559 49.4267 33.5559 49.3947 33.5559 49.352C33.1932 47.8373 32.4785 46.1947 31.4119 44.424C30.3452 42.6747 29.0439 40.904 27.5079 39.112C25.1612 39.2187 22.7719 39.1227 20.3399 38.824C19.2519 38.696 18.1532 38.5573 17.0439 38.408C15.9559 38.2373 14.8679 38.0347 13.7799 37.8C13.1612 39.528 12.6385 41.2453 12.2119 42.952C11.7852 44.6587 11.4759 46.344 11.2839 48.008C11.0492 49.8213 10.8785 51.5173 10.7719 53.096C10.6652 54.696 10.6439 56.1253 10.7079 57.384C10.7932 58.6427 10.9745 59.6987 11.2519 60.552C11.5292 61.4267 11.9559 62.0453 12.5319 62.408C12.9159 62.6213 13.0865 62.8773 13.0439 63.176C13.0012 63.496 12.8412 63.752 12.5639 63.944C12.2865 64.136 11.9345 64.2107 11.5079 64.168C11.0812 64.1253 10.6759 63.8587 10.2919 63.368C9.88654 62.856 9.57721 62.0773 9.36388 61.032C9.15054 59.9867 9.03321 58.7387 9.01188 57.288C9.01188 55.8587 9.10788 54.2587 9.29988 52.488C9.49188 50.7387 9.77988 48.8827 10.1639 46.92C10.7399 43.848 11.5079 40.712 12.4679 37.512C10.7825 37.1067 9.19321 36.6267 7.69988 36.072C6.22788 35.5173 4.96921 34.8773 3.92388 34.152C2.89988 33.4053 2.13188 32.5627 1.61988 31.624C1.12921 30.6853 1.03321 29.6293 1.33188 28.456C1.58788 27.4107 2.08921 26.6107 2.83588 26.056C3.58254 25.5013 4.43588 25.128 5.39587 24.936C6.61188 24.68 7.93454 24.68 9.36388 24.936C10.8145 25.192 12.2439 25.576 13.6519 26.088C14.0359 26.2373 14.4199 26.408 14.8039 26.6C15.2092 26.7707 15.6252 26.9733 16.0519 27.208C17.5239 23.6453 19.1665 20.264 20.9799 17.064C22.8145 13.864 24.8305 10.9947 27.0279 8.456C28.0945 7.21866 29.2039 6.10933 30.3559 5.128C31.5079 4.12533 32.6385 3.29333 33.7479 2.632C34.8572 1.94933 35.9239 1.46933 36.9479 1.192C37.9932 0.914664 38.9319 0.871998 39.7639 1.064C40.3612 1.21333 40.8945 1.49067 41.3639 1.896C41.8332 2.30133 42.2172 2.856 42.5159 3.56C42.8145 4.264 43.0172 5.128 43.1239 6.152C43.2519 7.15466 43.2519 8.33867 43.1239 9.704C42.9532 11.624 42.6545 13.6933 42.2279 15.912C41.8225 18.1307 41.3425 20.4027 40.7879 22.728C40.2545 25.0533 39.6892 27.3893 39.0919 29.736C38.4945 32.0613 37.9292 34.3013 37.3959 36.456C39.4225 35.7733 41.4812 34.8027 43.5719 33.544C44.1479 33.1813 44.7025 32.84 45.2359 32.52C45.7905 32.1787 46.3239 31.8053 46.8359 31.4C47.0279 31.2507 47.2199 31.1867 47.4119 31.208C47.6039 31.2293 47.7532 31.304 47.8599 31.432C47.9665 31.5387 48.0199 31.688 48.0199 31.88C48.0412 32.072 47.9665 32.264 47.7959 32.456C47.4332 32.712 47.0599 32.9467 46.6759 33.16C46.3132 33.3733 45.9292 33.5973 45.5239 33.832C44.2012 34.6427 42.8359 35.3573 41.4279 35.976C40.0412 36.5947 38.6119 37.128 37.1399 37.576C36.5212 40.1147 36.0305 42.4293 35.6679 44.52C35.3265 46.6107 35.2092 48.328 35.3159 49.672C35.2732 49.8853 35.1559 50.0453 34.9639 50.152C34.7932 50.2587 34.6119 50.3013 34.4199 50.28C34.2279 50.28 34.0465 50.216 33.8759 50.088C33.7052 49.9813 33.6092 49.8107 33.5879 49.576ZM27.7639 11.912C26.0359 14.344 24.3079 16.9467 22.5799 19.72C20.8732 22.472 19.2839 25.3307 17.8119 28.296C19.6039 29.4693 21.3959 30.9093 23.1879 32.616C25.0012 34.3013 26.6865 36.0827 28.2439 37.96C30.7612 37.9387 33.2679 37.5973 35.7639 36.936C36.2972 34.7813 36.8732 32.5307 37.4919 30.184C38.1319 27.816 38.7292 25.4693 39.2839 23.144C39.8385 20.8187 40.3292 18.568 40.7559 16.392C41.1825 14.216 41.4812 12.2107 41.6519 10.376C41.7799 8.904 41.8012 7.66667 41.7159 6.664C41.6305 5.64 41.4492 4.808 41.1719 4.168C40.9159 3.528 40.5745 3.06933 40.1479 2.792C39.7212 2.51467 39.2412 2.38667 38.7079 2.408C38.0039 2.45066 37.2039 2.728 36.3079 3.24C35.4332 3.73066 34.5159 4.40266 33.5559 5.256C32.6172 6.10933 31.6465 7.112 30.6439 8.264C29.6625 9.39467 28.7025 10.6107 27.7639 11.912ZM13.0759 35.496C13.4385 34.344 13.8119 33.2133 14.1959 32.104C14.6012 30.9733 15.0172 29.8427 15.4439 28.712C13.5239 27.56 11.6892 26.728 9.93988 26.216C8.21188 25.6827 6.67588 25.5973 5.33188 25.96C4.77721 26.1307 4.36121 26.4293 4.08388 26.856C3.80654 27.2613 3.71054 27.72 3.79588 28.232C3.92388 29.0427 4.24388 29.8 4.75588 30.504C5.28921 31.208 5.96121 31.8693 6.77188 32.488C7.60388 33.0853 8.55321 33.64 9.61987 34.152C10.7079 34.6427 11.8599 35.0907 13.0759 35.496ZM17.1079 29.768C16.1265 31.8373 15.2412 33.896 14.4519 35.944C15.5612 36.264 16.6812 36.552 17.8119 36.808C18.9639 37.0427 20.1159 37.2453 21.2679 37.416C22.1639 37.5653 23.0385 37.6827 23.8919 37.768C24.7452 37.832 25.5985 37.8853 26.4519 37.928C25.0439 36.392 23.5399 34.92 21.9399 33.512C20.3612 32.104 18.7505 30.856 17.1079 29.768ZM33.7479 46.44C33.8972 45.288 34.1212 43.9973 34.4199 42.568C34.7185 41.16 35.0705 39.6453 35.4759 38.024C34.4519 38.28 33.4065 38.4933 32.3399 38.664C31.2732 38.8133 30.1959 38.9307 29.1079 39.016C30.1319 40.296 31.0385 41.5653 31.8279 42.824C32.6172 44.0827 33.2572 45.288 33.7479 46.44ZM66.6681 32.2C66.3481 32.6053 65.9321 33.1173 65.4201 33.736C64.9081 34.3547 64.3215 35.016 63.6601 35.72C62.9988 36.424 62.2735 37.1387 61.4841 37.864C60.7161 38.5893 59.9161 39.272 59.0841 39.912C58.2521 40.5307 57.3988 41.064 56.5241 41.512C55.6495 41.96 54.7855 42.2587 53.9321 42.408C53.1641 42.536 52.3855 42.504 51.5961 42.312C50.8281 42.12 50.1775 41.6827 49.6441 41C49.2388 40.424 49.0041 39.784 48.9401 39.08C48.8975 38.376 48.9508 37.672 49.1001 36.968C49.2708 36.264 49.5055 35.592 49.8041 34.952C50.1241 34.2907 50.4655 33.7253 50.8281 33.256C50.4015 33.32 49.9641 33.3093 49.5161 33.224C49.0681 33.1387 48.6415 33 48.2361 32.808C47.8521 32.5947 47.5108 32.3387 47.2121 32.04C46.9135 31.72 46.7215 31.3573 46.6361 30.952C46.5508 30.5253 46.6148 30.0453 46.8281 29.512C47.0415 28.9573 47.4575 28.488 48.0761 28.104C48.3108 27.976 48.5455 27.9013 48.7801 27.88C49.0361 27.8587 49.2601 27.88 49.4521 27.944C49.6655 28.008 49.8361 28.1147 49.9641 28.264C50.1135 28.392 50.1988 28.552 50.2201 28.744C50.2628 28.936 50.2201 29.1067 50.0921 29.256C49.9855 29.384 49.8468 29.512 49.6761 29.64C49.5268 29.7467 49.3881 29.8427 49.2601 29.928C49.1321 30.0133 49.0788 30.088 49.1001 30.152C49.1428 30.3653 49.3028 30.568 49.5801 30.76C49.8575 30.9307 50.1775 31.1013 50.5401 31.272C50.9028 31.4427 51.2655 31.6027 51.6281 31.752C51.9908 31.9013 52.2788 32.04 52.4921 32.168C52.9828 32.488 53.2921 32.8507 53.4201 33.256C53.5695 33.64 53.6015 34.056 53.5161 34.504C53.4308 34.9307 53.2708 35.3787 53.0361 35.848C52.8228 36.296 52.5881 36.7547 52.3321 37.224C52.0975 37.672 51.8841 38.1093 51.6921 38.536C51.5215 38.9627 51.4361 39.3573 51.4361 39.72C51.4361 40.0827 51.5215 40.3707 51.6921 40.584C51.8841 40.7973 52.1188 40.9467 52.3961 41.032C52.6735 41.1387 52.9828 41.1813 53.3241 41.16C53.6655 41.16 53.9855 41.128 54.2841 41.064C54.9881 40.8933 55.7135 40.584 56.4601 40.136C57.2281 39.688 57.9855 39.1653 58.7321 38.568C59.4788 37.9493 60.2041 37.288 60.9081 36.584C61.6121 35.88 62.2628 35.1973 62.8601 34.536C63.4575 33.8747 63.9908 33.2667 64.4601 32.712C64.9508 32.1573 65.3455 31.72 65.6441 31.4C65.9001 31.1227 66.1561 30.952 66.4121 30.888C66.6681 30.8027 66.8708 30.8027 67.0201 30.888C67.1695 30.952 67.2228 31.1013 67.1801 31.336C67.1588 31.5707 66.9881 31.8587 66.6681 32.2ZM69.9286 29.512C69.822 29.8747 69.6193 30.4187 69.3206 31.144C69.022 31.8693 68.6913 32.6373 68.3286 33.448C67.9873 34.2587 67.6566 35.0587 67.3366 35.848C67.038 36.6373 66.846 37.2773 66.7606 37.768C66.6966 38.1093 66.6966 38.3547 66.7606 38.504C66.846 38.632 66.9633 38.696 67.1126 38.696C67.262 38.696 67.4326 38.6427 67.6246 38.536C67.838 38.408 68.03 38.2693 68.2006 38.12C68.67 37.736 69.1606 37.2027 69.6726 36.52C70.1846 35.8373 70.6646 35.1547 71.1126 34.472C71.582 33.7893 71.9873 33.1813 72.3286 32.648C72.6913 32.0933 72.9366 31.752 73.0646 31.624C73.4273 31.3253 73.8006 31.1653 74.1846 31.144C74.5686 31.1227 74.8993 31.1973 75.1766 31.368C75.4753 31.5173 75.678 31.752 75.7846 32.072C75.8913 32.3707 75.8593 32.7013 75.6886 33.064C74.878 34.7493 74.4726 36.1147 74.4726 37.16C74.4726 38.184 74.846 38.7813 75.5926 38.952C76.1046 38.9947 76.6593 38.8987 77.2566 38.664C77.854 38.4293 78.462 38.1093 79.0806 37.704C79.7206 37.2773 80.35 36.7973 80.9686 36.264C81.5873 35.7093 82.1846 35.1547 82.7606 34.6C83.3366 34.024 83.87 33.4587 84.3606 32.904C84.8513 32.3493 85.278 31.848 85.6406 31.4C85.854 31.1013 86.0886 30.9093 86.3446 30.824C86.6006 30.7387 86.8033 30.7387 86.9526 30.824C87.1233 30.9093 87.198 31.08 87.1766 31.336C87.1553 31.5707 86.9846 31.8587 86.6646 32.2C85.982 33.032 85.1926 33.928 84.2966 34.888C83.422 35.848 82.4833 36.7333 81.4806 37.544C80.478 38.3547 79.422 39.0267 78.3126 39.56C77.2033 40.072 76.0726 40.296 74.9206 40.232C74.1953 40.1893 73.6086 40.0293 73.1606 39.752C72.734 39.4747 72.4246 39.1227 72.2326 38.696C72.0406 38.2693 71.966 37.7893 72.0086 37.256C72.0726 36.7013 72.2433 36.1147 72.5206 35.496C72.03 36.1147 71.518 36.7333 70.9846 37.352C70.4726 37.9707 69.9286 38.504 69.3526 38.952C68.798 39.3787 68.2113 39.6773 67.5926 39.848C66.974 39.9973 66.3446 39.912 65.7046 39.592C65.2566 39.3787 64.926 39.0907 64.7126 38.728C64.4993 38.3653 64.3606 37.9707 64.2966 37.544C64.2113 37.096 64.19 36.6587 64.2326 36.232C64.2753 35.784 64.3393 35.368 64.4246 34.984C64.574 34.28 64.7766 33.5867 65.0326 32.904C65.2673 32.2213 65.5126 31.5813 65.7686 30.984C66.046 30.3653 66.3126 29.8213 66.5686 29.352C66.8246 28.8613 67.0593 28.4667 67.2726 28.168C67.5926 27.7413 67.934 27.4747 68.2966 27.368C68.6593 27.24 68.9793 27.2507 69.2566 27.4C69.5553 27.5493 69.7686 27.8053 69.8966 28.168C70.046 28.5307 70.0566 28.9787 69.9286 29.512ZM93.5126 32.552C93.47 32.4667 93.31 32.6053 93.0326 32.968C92.7766 33.3093 92.446 33.768 92.0406 34.344C91.6566 34.92 91.23 35.5813 90.7606 36.328C90.3126 37.0533 89.8753 37.768 89.4486 38.472C89.0433 39.1547 88.6593 39.7947 88.2966 40.392C87.9553 40.968 87.71 41.3947 87.5606 41.672C87.326 41.9707 87.0806 42.216 86.8246 42.408C86.59 42.6 86.334 42.696 86.0566 42.696C85.694 42.696 85.406 42.5893 85.1926 42.376C84.9793 42.184 84.8086 41.9387 84.6806 41.64C84.5313 41.3413 84.4246 41.0213 84.3606 40.68C84.2966 40.3387 84.254 40.0187 84.2326 39.72C84.1473 38.888 84.1793 37.896 84.3286 36.744C84.478 35.592 84.7126 34.44 85.0326 33.288C85.3313 32.136 85.694 31.0587 86.1206 30.056C86.5473 29.032 86.9846 28.2533 87.4326 27.72C87.774 27.3147 88.126 27.0587 88.4886 26.952C88.8726 26.824 89.214 26.8133 89.5126 26.92C89.8326 27.0053 90.0673 27.1867 90.2166 27.464C90.366 27.72 90.3873 28.0187 90.2806 28.36C90.0886 29 89.7686 29.8533 89.3206 30.92C88.8726 31.9653 88.414 33.064 87.9446 34.216C87.4966 35.368 87.0913 36.488 86.7286 37.576C86.366 38.664 86.1633 39.5707 86.1206 40.296C86.1206 40.3387 86.1206 40.4133 86.1206 40.52C86.1206 40.6053 86.1313 40.68 86.1526 40.744C86.174 40.808 86.206 40.8507 86.2486 40.872C86.3126 40.872 86.398 40.808 86.5046 40.68C86.5686 40.5947 86.718 40.3387 86.9526 39.912C87.2086 39.464 87.518 38.92 87.8806 38.28C88.2646 37.6187 88.6913 36.904 89.1606 36.136C89.63 35.3467 90.1206 34.5787 90.6326 33.832C91.166 33.0853 91.6993 32.4027 92.2326 31.784C92.7873 31.144 93.3206 30.632 93.8326 30.248C94.3233 29.8853 94.782 29.6933 95.2086 29.672C95.6566 29.6293 96.0406 29.832 96.3606 30.28C96.5953 30.6213 96.6913 31.0587 96.6486 31.592C96.606 32.104 96.4993 32.6587 96.3286 33.256C96.1793 33.8533 96.0193 34.472 95.8486 35.112C95.678 35.7307 95.582 36.3173 95.5606 36.872C95.5606 37.4053 95.6673 37.8747 95.8806 38.28C96.1153 38.664 96.5633 38.9307 97.2246 39.08C97.7366 39.208 98.3126 39.1653 98.9526 38.952C99.614 38.7387 100.297 38.4293 101.001 38.024C101.726 37.5973 102.451 37.1067 103.177 36.552C103.902 35.976 104.595 35.3893 105.257 34.792C105.918 34.1733 106.526 33.576 107.081 33C107.657 32.4027 108.137 31.8693 108.521 31.4C108.734 31.1013 108.969 30.9093 109.225 30.824C109.481 30.7387 109.683 30.7387 109.833 30.824C110.003 30.9093 110.078 31.08 110.057 31.336C110.035 31.5707 109.865 31.8587 109.545 32.2C108.841 33.032 107.987 33.96 106.985 34.984C106.003 35.9867 104.937 36.9147 103.785 37.768C102.633 38.6 101.438 39.2827 100.201 39.816C98.9846 40.328 97.79 40.52 96.6166 40.392C95.742 40.3067 95.0273 40.0293 94.4726 39.56C93.9393 39.0907 93.5446 38.5147 93.2886 37.832C93.054 37.1493 92.9473 36.4027 92.9686 35.592C93.0113 34.76 93.1606 33.96 93.4166 33.192C93.4593 33.064 93.4913 32.936 93.5126 32.808C93.5553 32.68 93.5553 32.5947 93.5126 32.552ZM117.508 31.272C117.273 31.464 116.964 31.8053 116.58 32.296C116.217 32.7867 115.801 33.3307 115.332 33.928C114.862 34.5253 114.35 35.1333 113.796 35.752C113.241 36.3493 112.665 36.872 112.068 37.32C111.492 37.7467 110.894 38.0453 110.276 38.216C109.678 38.3867 109.092 38.3227 108.516 38.024C108.004 37.768 107.673 37.3307 107.524 36.712C107.353 36.0933 107.31 35.4533 107.396 34.792C107.545 33.4693 107.961 32.2427 108.644 31.112C109.348 29.9813 110.212 29.0213 111.236 28.232C112.281 27.4213 113.444 26.824 114.724 26.44C116.004 26.056 117.316 25.96 118.66 26.152C119.47 26.2587 120.228 26.5147 120.932 26.92C121.636 27.304 122.169 27.88 122.532 28.648C122.702 29.0107 122.734 29.2987 122.628 29.512C122.521 29.7253 122.35 29.8533 122.116 29.896C121.902 29.9387 121.657 29.8853 121.38 29.736C121.124 29.5653 120.921 29.288 120.772 28.904C120.473 28.3493 120.1 27.9333 119.652 27.656C119.204 27.3573 118.724 27.1867 118.212 27.144C117.55 27.08 116.878 27.208 116.196 27.528C115.513 27.8267 114.862 28.2533 114.244 28.808C113.625 29.3413 113.06 29.96 112.548 30.664C112.036 31.368 111.63 32.0827 111.332 32.808C111.268 32.9573 111.182 33.16 111.076 33.416C110.99 33.672 110.916 33.9493 110.852 34.248C110.788 34.5253 110.745 34.8027 110.724 35.08C110.724 35.336 110.777 35.5387 110.884 35.688C110.969 35.816 111.172 35.7733 111.492 35.56C111.833 35.3467 112.228 35.048 112.676 34.664C113.124 34.2587 113.593 33.8 114.084 33.288C114.596 32.776 115.076 32.2853 115.524 31.816C115.993 31.3467 116.398 30.9307 116.74 30.568C117.081 30.2053 117.305 29.9707 117.412 29.864C117.796 29.5013 118.18 29.2667 118.564 29.16C118.948 29.032 119.278 29.0107 119.556 29.096C119.854 29.1813 120.068 29.352 120.196 29.608C120.345 29.864 120.366 30.1627 120.26 30.504C119.897 31.592 119.673 32.5307 119.588 33.32C119.502 34.1093 119.524 34.7707 119.652 35.304C119.78 35.816 120.004 36.2213 120.324 36.52C120.644 36.8187 121.028 37.0213 121.476 37.128C122.244 37.2987 123.15 37.2347 124.196 36.936C125.262 36.616 126.329 36.1573 127.396 35.56C128.484 34.9627 129.508 34.2907 130.468 33.544C131.428 32.7973 132.196 32.0827 132.772 31.4C132.985 31.1013 133.22 30.9093 133.476 30.824C133.732 30.7387 133.934 30.7387 134.084 30.824C134.254 30.9093 134.329 31.08 134.308 31.336C134.286 31.5707 134.116 31.8587 133.796 32.2C133.092 33.032 132.238 33.8533 131.236 34.664C130.254 35.4747 129.188 36.1787 128.036 36.776C126.884 37.3733 125.689 37.832 124.452 38.152C123.236 38.472 122.041 38.568 120.868 38.44C119.908 38.3547 119.108 38.0987 118.468 37.672C117.828 37.224 117.358 36.68 117.06 36.04C116.782 35.3787 116.676 34.6427 116.74 33.832C116.804 33 117.06 32.1467 117.508 31.272ZM152.606 32.2C152.286 32.6053 151.87 33.1173 151.358 33.736C150.846 34.3547 150.259 35.016 149.598 35.72C148.936 36.424 148.211 37.1387 147.422 37.864C146.654 38.5893 145.854 39.272 145.022 39.912C144.19 40.5307 143.336 41.064 142.462 41.512C141.587 41.96 140.723 42.2587 139.87 42.408C139.102 42.536 138.323 42.504 137.534 42.312C136.766 42.12 136.115 41.6827 135.582 41C135.176 40.424 134.942 39.784 134.878 39.08C134.835 38.376 134.888 37.672 135.038 36.968C135.208 36.264 135.443 35.592 135.742 34.952C136.062 34.2907 136.403 33.7253 136.766 33.256C136.339 33.32 135.902 33.3093 135.454 33.224C135.006 33.1387 134.579 33 134.174 32.808C133.79 32.5947 133.448 32.3387 133.15 32.04C132.851 31.72 132.659 31.3573 132.574 30.952C132.488 30.5253 132.552 30.0453 132.766 29.512C132.979 28.9573 133.395 28.488 134.014 28.104C134.248 27.976 134.483 27.9013 134.718 27.88C134.974 27.8587 135.198 27.88 135.39 27.944C135.603 28.008 135.774 28.1147 135.902 28.264C136.051 28.392 136.136 28.552 136.158 28.744C136.2 28.936 136.158 29.1067 136.03 29.256C135.923 29.384 135.784 29.512 135.614 29.64C135.464 29.7467 135.326 29.8427 135.198 29.928C135.07 30.0133 135.016 30.088 135.038 30.152C135.08 30.3653 135.24 30.568 135.518 30.76C135.795 30.9307 136.115 31.1013 136.478 31.272C136.84 31.4427 137.203 31.6027 137.566 31.752C137.928 31.9013 138.216 32.04 138.43 32.168C138.92 32.488 139.23 32.8507 139.358 33.256C139.507 33.64 139.539 34.056 139.454 34.504C139.368 34.9307 139.208 35.3787 138.974 35.848C138.76 36.296 138.526 36.7547 138.27 37.224C138.035 37.672 137.822 38.1093 137.63 38.536C137.459 38.9627 137.374 39.3573 137.374 39.72C137.374 40.0827 137.459 40.3707 137.63 40.584C137.822 40.7973 138.056 40.9467 138.334 41.032C138.611 41.1387 138.92 41.1813 139.262 41.16C139.603 41.16 139.923 41.128 140.222 41.064C140.926 40.8933 141.651 40.584 142.398 40.136C143.166 39.688 143.923 39.1653 144.67 38.568C145.416 37.9493 146.142 37.288 146.846 36.584C147.55 35.88 148.2 35.1973 148.798 34.536C149.395 33.8747 149.928 33.2667 150.398 32.712C150.888 32.1573 151.283 31.72 151.582 31.4C151.838 31.1227 152.094 30.952 152.35 30.888C152.606 30.8027 152.808 30.8027 152.958 30.888C153.107 30.952 153.16 31.1013 153.118 31.336C153.096 31.5707 152.926 31.8587 152.606 32.2ZM160.57 31.272C160.335 31.464 160.026 31.8053 159.642 32.296C159.279 32.7867 158.863 33.3307 158.394 33.928C157.925 34.5253 157.413 35.1333 156.858 35.752C156.303 36.3493 155.727 36.872 155.13 37.32C154.554 37.7467 153.957 38.0453 153.338 38.216C152.741 38.3867 152.154 38.3227 151.578 38.024C151.066 37.768 150.735 37.3307 150.586 36.712C150.415 36.0933 150.373 35.4533 150.458 34.792C150.607 33.4693 151.023 32.2427 151.706 31.112C152.41 29.9813 153.274 29.0213 154.298 28.232C155.343 27.4213 156.506 26.824 157.786 26.44C159.066 26.056 160.378 25.96 161.722 26.152C162.533 26.2587 163.29 26.5147 163.994 26.92C164.698 27.304 165.231 27.88 165.594 28.648C165.765 29.0107 165.797 29.2987 165.69 29.512C165.583 29.7253 165.413 29.8533 165.178 29.896C164.965 29.9387 164.719 29.8853 164.442 29.736C164.186 29.5653 163.983 29.288 163.834 28.904C163.535 28.3493 163.162 27.9333 162.714 27.656C162.266 27.3573 161.786 27.1867 161.274 27.144C160.613 27.08 159.941 27.208 159.258 27.528C158.575 27.8267 157.925 28.2533 157.306 28.808C156.687 29.3413 156.122 29.96 155.61 30.664C155.098 31.368 154.693 32.0827 154.394 32.808C154.33 32.9573 154.245 33.16 154.138 33.416C154.053 33.672 153.978 33.9493 153.914 34.248C153.85 34.5253 153.807 34.8027 153.786 35.08C153.786 35.336 153.839 35.5387 153.946 35.688C154.031 35.816 154.234 35.7733 154.554 35.56C154.895 35.3467 155.29 35.048 155.738 34.664C156.186 34.2587 156.655 33.8 157.146 33.288C157.658 32.776 158.138 32.2853 158.586 31.816C159.055 31.3467 159.461 30.9307 159.802 30.568C160.143 30.2053 160.367 29.9707 160.474 29.864C160.858 29.5013 161.242 29.2667 161.626 29.16C162.01 29.032 162.341 29.0107 162.618 29.096C162.917 29.1813 163.13 29.352 163.258 29.608C163.407 29.864 163.429 30.1627 163.322 30.504C162.959 31.592 162.735 32.5307 162.65 33.32C162.565 34.1093 162.586 34.7707 162.714 35.304C162.842 35.816 163.066 36.2213 163.386 36.52C163.706 36.8187 164.09 37.0213 164.538 37.128C165.306 37.2987 166.213 37.2347 167.258 36.936C168.325 36.616 169.391 36.1573 170.458 35.56C171.546 34.9627 172.57 34.2907 173.53 33.544C174.49 32.7973 175.258 32.0827 175.834 31.4C176.047 31.1013 176.282 30.9093 176.538 30.824C176.794 30.7387 176.997 30.7387 177.146 30.824C177.317 30.9093 177.391 31.08 177.37 31.336C177.349 31.5707 177.178 31.8587 176.858 32.2C176.154 33.032 175.301 33.8533 174.298 34.664C173.317 35.4747 172.25 36.1787 171.098 36.776C169.946 37.3733 168.751 37.832 167.514 38.152C166.298 38.472 165.103 38.568 163.93 38.44C162.97 38.3547 162.17 38.0987 161.53 37.672C160.89 37.224 160.421 36.68 160.122 36.04C159.845 35.3787 159.738 34.6427 159.802 33.832C159.866 33 160.122 32.1467 160.57 31.272Z" fill="#9E354A"/>
</svg>
