<svg width="64" height="64" viewBox="0 0 64 64" fill="none" xmlns="http://www.w3.org/2000/svg">
<path d="M49.1075 56.5919C36.8106 56.5919 28.3662 62.9617 22.4408 62.9617C16.5155 62.9617 4.07104 59.5555 4.07104 32.2968C4.07104 5.03815 20.8124 1.03638 27.3297 1.03638C57.8488 1.03638 70.8853 56.5919 49.1075 56.5919Z" fill="#FAE4E8"/>
<path d="M11.5556 14.2222C10.0854 14.2222 8.88892 13.0258 8.88892 11.5556C8.88892 10.0854 10.0854 8.88892 11.5556 8.88892C13.0258 8.88892 14.2222 10.0854 14.2222 11.5556C14.2222 13.0258 13.0258 14.2222 11.5556 14.2222ZM11.5556 10.6667C11.0649 10.6667 10.6667 11.0649 10.6667 11.5556C10.6667 12.0462 11.0649 12.4445 11.5556 12.4445C12.0462 12.4445 12.4445 12.0462 12.4445 11.5556C12.4445 11.0649 12.0462 10.6667 11.5556 10.6667Z" fill="#C76679"/>
<path d="M28.4445 46.6667C20.3449 46.6667 13.7778 40.0996 13.7778 32V25.3334H43.1112V32C43.1112 40.0996 36.5441 46.6667 28.4445 46.6667Z" fill="#C76679"/>
<path d="M41.3333 52H15.5556C13.5911 52 12 50.4088 12 48.4444V46.6666H44.8889V48.4444C44.8889 50.4088 43.2978 52 41.3333 52Z" fill="#FFF4F6"/>
<path d="M17.7778 32V25.3334H13.7778V32C13.7778 40.0996 20.3449 46.6667 28.4445 46.6667C29.1254 46.6667 29.7885 46.6045 30.4445 46.5138C23.2925 45.536 17.7778 39.4205 17.7778 32Z" fill="#9E354A"/>
<path d="M16 48.4444V46.6666H12V48.4444C12 50.4088 13.5911 52 15.5556 52H19.5556C17.5911 52 16 50.4088 16 48.4444Z" fill="#C76679"/>
<path d="M46.6667 40.8889H41.2605V38.2222H46.6667C48.8729 38.2222 50.6667 36.4284 50.6667 34.2222C50.6667 32.016 48.8729 30.2222 46.6667 30.2222H43.5556V27.5555H46.6667C50.3432 27.5555 53.3334 30.5458 53.3334 34.2222C53.3334 37.8987 50.3432 40.8889 46.6667 40.8889Z" fill="#9E354A"/>
<path d="M24.3237 21.8809L22.5761 19.8667L23.5824 18.992C23.881 18.7325 24.0268 18.4072 23.9948 18.0729C23.961 17.712 23.7192 17.376 23.3317 17.152C22.1886 16.4907 21.4668 15.4063 21.3495 14.176C21.2357 12.9796 21.7157 11.8187 22.6686 10.9903L23.6748 10.1156L25.4224 12.1298L24.4161 13.0045C24.1175 13.264 23.9717 13.5894 24.0037 13.9236C24.0375 14.2845 24.2792 14.6205 24.6668 14.8445C25.8099 15.5058 26.5317 16.5903 26.649 17.8205C26.7628 19.0169 26.2828 20.1778 25.3299 21.0063L24.3237 21.8809Z" fill="#9E354A"/>
<path d="M33.2124 21.8809L31.4648 19.8667L32.471 18.992C32.7697 18.7325 32.9155 18.4072 32.8835 18.0729C32.8497 17.712 32.6079 17.376 32.2204 17.152C31.0772 16.4907 30.3555 15.4063 30.2381 14.176C30.1244 12.9796 30.6044 11.8187 31.5572 10.9903L32.5635 10.1156L34.311 12.1298L33.3048 13.0045C33.0061 13.264 32.8604 13.5894 32.8924 13.9236C32.9261 14.2845 33.1679 14.6205 33.5555 14.8445C34.6986 15.5058 35.4204 16.5903 35.5377 17.8205C35.6515 19.0169 35.1715 20.1778 34.2186 21.0063L33.2124 21.8809Z" fill="#9E354A"/>
<path d="M28.4443 48C19.623 48 12.4443 40.8213 12.4443 32V25.3333C12.4443 24.5973 13.0417 24 13.7777 24H43.111C43.847 24 44.4443 24.5973 44.4443 25.3333V32C44.4443 40.8213 37.2657 48 28.4443 48ZM15.111 26.6667V32C15.111 39.3529 21.0914 45.3333 28.4443 45.3333C35.7972 45.3333 41.7777 39.3529 41.7777 32V26.6667H15.111Z" fill="#9E354A"/>
<path d="M41.3334 53.3334H15.5556C12.8587 53.3334 10.6667 51.1414 10.6667 48.4445V46.6667C10.6667 45.9307 11.2641 45.3334 12.0001 45.3334H44.889C45.625 45.3334 46.2223 45.9307 46.2223 46.6667V48.4445C46.2223 51.1414 44.0303 53.3334 41.3334 53.3334ZM13.3334 48V48.4445C13.3334 49.6694 14.3307 50.6667 15.5556 50.6667H41.3334C42.5583 50.6667 43.5556 49.6694 43.5556 48.4445V48H13.3334Z" fill="#9E354A"/>
<path d="M3.55566 50.6666H60.4446V53.3333H3.55566V50.6666Z" fill="#9E354A"/>
</svg>
