<svg width="64" height="64" viewBox="0 0 64 64" fill="none" xmlns="http://www.w3.org/2000/svg">
<path d="M20.5012 61.8703C32.3146 58.4587 42.1955 62.2365 47.8879 60.5921C53.5804 58.9476 64.5919 52.2223 57.0292 26.0321C49.4666 -0.158167 32.2755 0.645389 26.0124 2.45339C-3.30853 10.9209 -0.421422 67.9129 20.5012 61.8703Z" fill="#FAE4E8"/>
<path d="M8.93628 10.0431L10.1934 8.78601L12.7075 11.3002L11.4504 12.5572L8.93628 10.0431Z" fill="#C76679"/>
<path d="M8.62085 18.5227L11.1363 16.0073L12.3933 17.2644L9.87793 19.7798L8.62085 18.5227Z" fill="#C76679"/>
<path d="M15.8503 11.296L18.3645 8.78186L19.6216 10.0389L17.1074 12.5531L15.8503 11.296Z" fill="#C76679"/>
<path d="M50.9545 53.4649C49.4843 53.4649 48.2878 52.2685 48.2878 50.7983C48.2878 49.328 49.4843 48.1316 50.9545 48.1316C52.4247 48.1316 53.6212 49.328 53.6212 50.7983C53.6212 52.2685 52.4247 53.4649 50.9545 53.4649ZM50.9545 49.9094C50.4656 49.9094 50.0656 50.3094 50.0656 50.7983C50.0656 51.2871 50.4656 51.6871 50.9545 51.6871C51.4434 51.6871 51.8434 51.2871 51.8434 50.7983C51.8434 50.3094 51.4452 49.9094 50.9545 49.9094Z" fill="#C76679"/>
<path d="M32 52C20.9547 52 12 43.0453 12 32C12 20.9547 20.9547 12 32 12C43.0453 12 52 20.9547 52 32C52 43.0453 43.0453 52 32 52Z" fill="#FFF4F6"/>
<path d="M32 25.824L30.5475 24.2737C28.5422 22.1315 25.2889 22.1315 23.2835 24.2737C21.2782 26.416 21.2782 29.888 23.2835 32.0284L32 41.3333L40.7182 32.0266C42.7235 29.8844 42.7235 26.4124 40.7182 24.272C38.7129 22.1297 35.4595 22.1297 33.4542 24.272L32 25.824Z" fill="#C76679"/>
<path d="M16 32C16 21.6302 23.8933 13.104 34 12.1013C33.3422 12.0356 32.6756 12 32 12C20.9547 12 12 20.9547 12 32C12 43.0453 20.9547 52 32 52C32.6756 52 33.3422 51.9644 34 51.8987C23.8933 50.896 16 42.3698 16 32Z" fill="#F4C4CD"/>
<path d="M27.2816 32.0284C25.2763 29.8862 25.2763 26.4142 27.2816 24.2738C27.7651 23.7582 28.3216 23.3742 28.9136 23.1075C27.0451 22.2649 24.8051 22.6489 23.2816 24.2738C21.2763 26.416 21.2763 29.888 23.2816 32.0284L31.9998 41.3333L33.9998 39.1982L27.2816 32.0284Z" fill="#9E354A"/>
<path d="M31.9998 53.3334C20.2363 53.3334 10.6665 43.7636 10.6665 32.0001C10.6665 20.2365 20.2363 10.6667 31.9998 10.6667C43.7634 10.6667 53.3332 20.2365 53.3332 32.0001C53.3332 43.7636 43.7634 53.3334 31.9998 53.3334ZM31.9998 13.3334C21.7065 13.3334 13.3332 21.7067 13.3332 32.0001C13.3332 42.2934 21.7065 50.6667 31.9998 50.6667C42.2932 50.6667 50.6665 42.2934 50.6665 32.0001C50.6665 21.7067 42.2932 13.3334 31.9998 13.3334Z" fill="#9E354A"/>
<path d="M32 42.6666C31.632 42.6666 31.28 42.5137 31.0275 42.2453L22.3111 32.9404C19.8364 30.3004 19.8364 26.0035 22.3111 23.3617C24.7591 20.7466 29.072 20.7466 31.52 23.3617L32 23.8737L32.4817 23.3617C34.9297 20.7466 39.2426 20.7466 41.6906 23.3617C44.1653 26.0017 44.1653 30.2986 41.6906 32.9404L32.9742 42.2453C32.72 42.5137 32.368 42.6666 32 42.6666ZM26.9155 23.9999C25.9164 23.9999 24.9706 24.4195 24.256 25.1839C22.7253 26.8195 22.7253 29.4808 24.256 31.1164L32 39.3831L39.744 31.1164C41.2746 29.4808 41.2746 26.8195 39.744 25.1839C38.3129 23.6568 35.8542 23.6568 34.4249 25.1839L32.9724 26.7342C32.4693 27.2728 31.5306 27.2728 31.0275 26.7342L29.5751 25.1839C28.8586 24.4195 27.9146 23.9999 26.9155 23.9999Z" fill="#9E354A"/>
</svg>
