<svg width="64" height="64" viewBox="0 0 64 64" fill="none" xmlns="http://www.w3.org/2000/svg">
<g clip-path="url(#clip0_2571_491)">
<path d="M48.5563 7.84706C36.263 8.07639 27.6994 1.86484 21.7759 1.97684C15.8505 2.08706 3.47188 5.72617 3.9821 32.9813C4.49232 60.2364 21.3048 63.9217 27.8221 63.8008C58.3341 63.2302 70.3306 7.43995 48.5563 7.84706Z" fill="#FAE4E8"/>
<path d="M8.33423 6.34229L10.8484 3.82813L12.1055 5.08521L9.59131 7.59936L8.33423 6.34229Z" fill="#C76679"/>
<path d="M1.10767 13.5696L3.62182 11.0554L4.8789 12.3125L2.36474 14.8267L1.10767 13.5696Z" fill="#C76679"/>
<path d="M1.10791 4.7699L2.36499 3.51282L4.87915 6.02698L3.62207 7.28406L1.10791 4.7699Z" fill="#C76679"/>
<path d="M13.0062 24.3716H41.3333V31.1111V32.8889C41.3333 40.7467 35.2071 47.1111 27.6444 47.1111H27.4009H25.6889C18.1262 47.1111 12 40.7467 12 32.8889V31.1111L13.0062 24.3716Z" fill="#FFF4F6"/>
<path d="M38.9938 28.1049L37.504 26.56C36.3787 25.4062 34.8533 24.8124 33.328 24.8124C32.1849 24.8124 31.024 25.1342 30.0356 25.8311C29.0471 26.5262 27.8862 26.8658 26.7271 26.8658C25.568 26.8658 24.4053 26.5262 23.4187 25.8311C21.0969 24.2187 17.9093 24.5422 15.9502 26.56L12 30.6667C12 27.4258 12.416 24.608 12.9191 22.3858C13.6124 19.28 16.4356 17.0916 19.6764 17.0916H22.7431C26.9529 17.0916 30.9724 15.4116 33.8667 12.4249C34.6631 11.7298 35.8773 11.9164 36.448 12.7982C38.2507 15.616 40.7804 19.6373 41.3333 27.376V30.6684L38.9938 28.1049Z" fill="#C76679"/>
<path d="M51.4703 48.912L46.5388 43.9805C45.0294 42.4711 44.0303 40.5298 43.6801 38.4249L43.0116 34.4196C42.7059 32.5831 40.9708 31.3102 39.1308 31.5947C34.7788 32.2685 32.2668 34.7805 31.593 39.1325C31.3085 40.9725 32.5814 42.7058 34.4179 43.0134L38.4232 43.6818C40.5281 44.032 42.4694 45.0311 43.9788 46.5405L48.9103 51.472C49.6161 52.1778 50.7628 52.1778 51.4685 51.472C52.1761 50.7627 52.1761 49.6178 51.4703 48.912Z" fill="#C76679"/>
<path d="M28.4444 47.0933C28.1778 47.1111 27.9111 47.1111 27.6444 47.1111H25.6889C18.1333 47.1111 12 40.7466 12 32.8888V31.1111L13.0133 24.3733H16.5689L15.5556 31.1111V32.8888C15.5556 40.4622 21.2622 46.6666 28.4444 47.0933Z" fill="#C76679"/>
<path d="M23.2356 17.0844C19.9822 17.0844 17.1733 19.2711 16.48 22.3822C16.1778 23.6622 15.9289 25.12 15.7689 26.7555L12 30.6666C12 27.4311 12.4089 24.6044 12.9244 22.3822C13.6178 19.2711 16.4267 17.0844 19.68 17.0844H22.7378C26.9511 17.0844 30.9689 15.4133 33.8667 12.4266C34.6667 11.7333 35.8756 11.9111 36.4444 12.8C36.5156 12.9066 36.5867 13.0133 36.6578 13.12C33.8311 15.68 30.1511 17.0844 26.2933 17.0844H23.2356Z" fill="#9E354A"/>
<path d="M12.0001 32C11.849 32 11.6979 31.9751 11.5503 31.9217C11.0205 31.7315 10.6667 31.2284 10.6667 30.6666C10.6667 27.9288 10.9636 25.1911 11.5467 22.5333C12.4641 18.512 15.593 15.8186 19.337 15.8186H22.5192C26.4445 15.8186 30.2347 14.2435 32.9174 11.4986C33.673 10.8373 34.5619 10.5742 35.4507 10.6986C36.3396 10.8231 37.1307 11.3262 37.6232 12.0782L38.0552 12.7377C39.7796 15.3511 41.9254 18.6026 42.6579 25.1626L40.009 25.4595C39.3459 19.536 37.4774 16.7057 35.8294 14.2062L35.3867 13.5342C35.2925 13.3902 35.1539 13.3493 35.0792 13.3404C34.9956 13.328 34.8641 13.3368 34.7432 13.44C31.6445 16.6204 27.1592 18.4871 22.5192 18.4871H19.337C16.8267 18.4871 14.7894 20.304 14.1494 23.1182C13.8916 24.288 13.6961 25.4773 13.5592 26.6755L14.5601 25.4577C17.0792 22.8764 21.0899 22.4906 23.9663 24.4675C25.4952 25.5342 27.689 25.5271 29.2001 24.4728C31.6036 22.7946 35.177 22.8231 37.6036 24.5688L36.0463 26.7342C34.5139 25.6302 32.2259 25.6142 30.729 26.6595C28.3165 28.3448 24.8605 28.3448 22.4463 26.6595C20.6312 25.4097 18.089 25.6568 16.5423 27.2373L13.0294 31.5146C12.7716 31.8275 12.3912 32 12.0001 32Z" fill="#9E354A"/>
<path d="M21.3334 35.5556C22.3153 35.5556 23.1112 34.7596 23.1112 33.7778C23.1112 32.7959 22.3153 32 21.3334 32C20.3516 32 19.5557 32.7959 19.5557 33.7778C19.5557 34.7596 20.3516 35.5556 21.3334 35.5556Z" fill="#9E354A"/>
<path d="M27.5734 48H25.8667C17.4845 48 10.6667 41.1128 10.6667 32.6471V30.6666H13.3334V32.6471C13.3334 39.6426 18.9565 45.3333 25.8667 45.3333H27.5734C27.9094 45.3333 28.009 45.3173 28.1814 45.2871C28.3112 45.264 28.4694 45.2355 28.7076 45.2017L29.0703 47.8435C28.8836 47.8684 28.7592 47.8915 28.6579 47.9111C28.3468 47.9662 28.1743 48 27.5734 48Z" fill="#9E354A"/>
<path d="M50.1903 53.3334C49.3512 53.3334 48.5619 53.0063 47.9681 52.4107L43.0383 47.4809C41.7174 46.1618 40.0463 45.3014 38.2063 44.9956L34.201 44.3289C31.6445 43.904 29.8828 41.4809 30.2774 38.9298C31.0348 34.0285 34.0268 31.0365 38.9281 30.2792C41.4845 29.8809 43.9023 31.6445 44.3272 34.2027L44.9939 38.2063C45.2997 40.048 46.1601 41.7192 47.4792 43.0383L52.409 47.968C53.0063 48.5618 53.3334 49.3512 53.3334 50.1903C53.3334 51.0312 53.0063 51.8205 52.4108 52.4125C51.8188 53.0063 51.0312 53.3334 50.1903 53.3334ZM39.6481 32.8889C39.545 32.8889 39.4401 32.896 39.337 32.9138C35.5414 33.5005 33.5005 35.5414 32.9139 39.3369C32.7414 40.4516 33.5148 41.5112 34.6401 41.6978L38.6454 42.3645C41.0365 42.7627 43.2072 43.8809 44.9245 45.5947L49.8543 50.5245C50.0979 50.768 50.2863 50.7663 50.5263 50.5245C50.649 50.4018 50.6668 50.2614 50.6668 50.1867C50.6668 50.1138 50.649 49.9716 50.5281 49.8525L45.5983 44.9227C43.8828 43.2072 42.7663 41.0347 42.3681 38.6436L41.7014 34.64C41.529 33.6214 40.6419 32.8889 39.6481 32.8889Z" fill="#9E354A"/>
</g>
<defs>
<clipPath id="clip0_2571_491">
<rect width="64" height="64" fill="white"/>
</clipPath>
</defs>
</svg>
