<svg width="20" height="20" viewBox="0 0 20 20" fill="none" xmlns="http://www.w3.org/2000/svg">
<g clip-path="url(#clip0_2593_1365)">
<path fill-rule="evenodd" clip-rule="evenodd" d="M10 15C12.7614 15 15 12.7614 15 10C15 7.23857 12.7614 5 10 5C7.23857 5 5 7.23857 5 10C5 12.7614 7.23857 15 10 15ZM10 13.3333C11.8409 13.3333 13.3333 11.8409 13.3333 10C13.3333 8.15905 11.8409 6.66667 10 6.66667C8.15905 6.66667 6.66667 8.15905 6.66667 10C6.66667 11.8409 8.15905 13.3333 10 13.3333Z" fill="#9E354A"/>
<path d="M15.0008 4.1665C14.5406 4.1665 14.1675 4.5396 14.1675 4.99984C14.1675 5.46007 14.5406 5.83317 15.0008 5.83317C15.4611 5.83317 15.8341 5.46007 15.8341 4.99984C15.8341 4.5396 15.4611 4.1665 15.0008 4.1665Z" fill="#9E354A"/>
<path fill-rule="evenodd" clip-rule="evenodd" d="M1.37749 3.56355C0.83252 4.6331 0.83252 6.03324 0.83252 8.8335V11.1668C0.83252 13.9671 0.83252 15.3672 1.37749 16.4367C1.85685 17.3776 2.62175 18.1425 3.56257 18.6218C4.63213 19.1668 6.03226 19.1668 8.83252 19.1668H11.1659C13.9661 19.1668 15.3663 19.1668 16.4358 18.6218C17.3766 18.1425 18.1415 17.3776 18.6209 16.4367C19.1659 15.3672 19.1659 13.9671 19.1659 11.1668V8.8335C19.1659 6.03324 19.1659 4.6331 18.6209 3.56355C18.1415 2.62273 17.3766 1.85783 16.4358 1.37846C15.3663 0.833496 13.9661 0.833496 11.1659 0.833496H8.83252C6.03226 0.833496 4.63213 0.833496 3.56257 1.37846C2.62175 1.85783 1.85685 2.62273 1.37749 3.56355ZM11.1659 2.50016H8.83252C7.40489 2.50016 6.43439 2.50146 5.68425 2.56275C4.95355 2.62245 4.57989 2.73065 4.31922 2.86347C3.69201 3.18305 3.18208 3.69299 2.86249 4.3202C2.72968 4.58086 2.62147 4.95453 2.56177 5.68523C2.50049 6.43537 2.49919 7.40586 2.49919 8.8335V11.1668C2.49919 12.5945 2.50049 13.5649 2.56177 14.3151C2.62147 15.0458 2.72968 15.4195 2.86249 15.6802C3.18208 16.3073 3.69201 16.8172 4.31922 17.1368C4.57989 17.2697 4.95355 17.3779 5.68425 17.4376C6.43439 17.4988 7.40489 17.5002 8.83252 17.5002H11.1659C12.5935 17.5002 13.5639 17.4988 14.3141 17.4376C15.0449 17.3779 15.4185 17.2697 15.6792 17.1368C16.3064 16.8172 16.8163 16.3073 17.1359 15.6802C17.2687 15.4195 17.3769 15.0458 17.4366 14.3151C17.4979 13.5649 17.4992 12.5945 17.4992 11.1668V8.8335C17.4992 7.40586 17.4979 6.43537 17.4366 5.68523C17.3769 4.95453 17.2687 4.58086 17.1359 4.3202C16.8163 3.69299 16.3064 3.18305 15.6792 2.86347C15.4185 2.73065 15.0449 2.62245 14.3141 2.56275C13.5639 2.50146 12.5935 2.50016 11.1659 2.50016Z" fill="#9E354A"/>
</g>
<defs>
<clipPath id="clip0_2593_1365">
<rect width="20" height="20" fill="white"/>
</clipPath>
</defs>
</svg>
