<svg width="36" height="36" viewBox="0 0 36 36" fill="none" xmlns="http://www.w3.org/2000/svg">
<rect width="36" height="36" rx="18" fill="white"/>
<g clip-path="url(#clip0_2593_1364)">
<path fill-rule="evenodd" clip-rule="evenodd" d="M18 23C20.7614 23 23 20.7614 23 18C23 15.2386 20.7614 13 18 13C15.2386 13 13 15.2386 13 18C13 20.7614 15.2386 23 18 23ZM18 21.3333C19.8409 21.3333 21.3333 19.8409 21.3333 18C21.3333 16.159 19.8409 14.6667 18 14.6667C16.159 14.6667 14.6667 16.159 14.6667 18C14.6667 19.8409 16.159 21.3333 18 21.3333Z" fill="#9E354A"/>
<path d="M23.0008 12.1665C22.5406 12.1665 22.1675 12.5396 22.1675 12.9998C22.1675 13.4601 22.5406 13.8332 23.0008 13.8332C23.4611 13.8332 23.8341 13.4601 23.8341 12.9998C23.8341 12.5396 23.4611 12.1665 23.0008 12.1665Z" fill="#9E354A"/>
<path fill-rule="evenodd" clip-rule="evenodd" d="M9.37749 11.5635C8.83252 12.6331 8.83252 14.0332 8.83252 16.8335V19.1668C8.83252 21.9671 8.83252 23.3672 9.37749 24.4367C9.85685 25.3776 10.6218 26.1425 11.5626 26.6218C12.6321 27.1668 14.0323 27.1668 16.8325 27.1668H19.1659C21.9661 27.1668 23.3663 27.1668 24.4358 26.6218C25.3766 26.1425 26.1415 25.3776 26.6209 24.4367C27.1659 23.3672 27.1659 21.9671 27.1659 19.1668V16.8335C27.1659 14.0332 27.1659 12.6331 26.6209 11.5635C26.1415 10.6227 25.3766 9.85783 24.4358 9.37846C23.3663 8.8335 21.9661 8.8335 19.1659 8.8335H16.8325C14.0323 8.8335 12.6321 8.8335 11.5626 9.37846C10.6218 9.85783 9.85685 10.6227 9.37749 11.5635ZM19.1659 10.5002H16.8325C15.4049 10.5002 14.4344 10.5015 13.6843 10.5627C12.9536 10.6224 12.5799 10.7307 12.3192 10.8635C11.692 11.1831 11.1821 11.693 10.8625 12.3202C10.7297 12.5809 10.6215 12.9545 10.5618 13.6852C10.5005 14.4354 10.4992 15.4059 10.4992 16.8335V19.1668C10.4992 20.5945 10.5005 21.5649 10.5618 22.3151C10.6215 23.0458 10.7297 23.4195 10.8625 23.6802C11.1821 24.3073 11.692 24.8172 12.3192 25.1368C12.5799 25.2697 12.9536 25.3779 13.6843 25.4376C14.4344 25.4988 15.4049 25.5002 16.8325 25.5002H19.1659C20.5935 25.5002 21.5639 25.4988 22.3141 25.4376C23.0449 25.3779 23.4185 25.2697 23.6792 25.1368C24.3064 24.8172 24.8163 24.3073 25.1359 23.6802C25.2687 23.4195 25.3769 23.0458 25.4366 22.3151C25.4979 21.5649 25.4992 20.5945 25.4992 19.1668V16.8335C25.4992 15.4059 25.4979 14.4354 25.4366 13.6852C25.3769 12.9545 25.2687 12.5809 25.1359 12.3202C24.8163 11.693 24.3064 11.1831 23.6792 10.8635C23.4185 10.7307 23.0449 10.6224 22.3141 10.5627C21.5639 10.5015 20.5935 10.5002 19.1659 10.5002Z" fill="#9E354A"/>
</g>
<defs>
<clipPath id="clip0_2593_1364">
<rect width="20" height="20" fill="white" transform="translate(8 8)"/>
</clipPath>
</defs>
</svg>
