<svg width="36" height="36" viewBox="0 0 36 36" fill="none" xmlns="http://www.w3.org/2000/svg">
<rect width="36" height="36" rx="18" fill="white"/>
<path d="M21.8332 12.85C21.2637 12.1996 20.9498 11.3645 20.9499 10.5H18.3749V20.8333C18.3554 21.3927 18.1195 21.9226 17.7168 22.3112C17.3141 22.6999 16.7762 22.917 16.2166 22.9167C15.0332 22.9167 14.0499 21.95 14.0499 20.75C14.0499 19.3167 15.4332 18.2417 16.8582 18.6833V16.05C13.9832 15.6667 11.4666 17.9 11.4666 20.75C11.4666 23.525 13.7666 25.5 16.2082 25.5C18.8249 25.5 20.9499 23.375 20.9499 20.75V15.5083C21.9941 16.2582 23.2477 16.6605 24.5332 16.6583V14.0833C24.5332 14.0833 22.9666 14.1583 21.8332 12.85Z" fill="#9E354A"/>
</svg>
