<svg width="36" height="36" viewBox="0 0 36 36" fill="none" xmlns="http://www.w3.org/2000/svg">
<rect width="36" height="36" rx="18" fill="white"/>
<path d="M26.7168 12.9999C26.0751 13.2916 25.3834 13.4833 24.6668 13.5749C25.4001 13.1333 25.9668 12.4333 26.2334 11.5916C25.5418 12.0083 24.7751 12.2999 23.9668 12.4666C23.3084 11.7499 22.3834 11.3333 21.3334 11.3333C19.3751 11.3333 17.7751 12.9333 17.7751 14.9083C17.7751 15.1916 17.8084 15.4666 17.8668 15.7249C14.9001 15.5749 12.2584 14.1499 10.5001 11.9916C10.1918 12.5166 10.0168 13.1333 10.0168 13.7833C10.0168 15.0249 10.6418 16.1249 11.6084 16.7499C11.0168 16.7499 10.4668 16.5833 9.98345 16.3333V16.3583C9.98345 18.0916 11.2168 19.5416 12.8501 19.8666C12.3258 20.0107 11.7751 20.0307 11.2418 19.9249C11.4681 20.6353 11.9114 21.2569 12.5093 21.7024C13.1072 22.1478 13.8297 22.3947 14.5751 22.4083C13.3115 23.4087 11.7451 23.9494 10.1334 23.9416C9.85011 23.9416 9.56678 23.9249 9.28345 23.8916C10.8668 24.9083 12.7501 25.4999 14.7668 25.4999C21.3334 25.4999 24.9418 20.0499 24.9418 15.3249C24.9418 15.1666 24.9418 15.0166 24.9334 14.8583C25.6334 14.3583 26.2334 13.7249 26.7168 12.9999Z" fill="#9E354A"/>
</svg>
