<svg width="20" height="20" viewBox="0 0 20 20" fill="none" xmlns="http://www.w3.org/2000/svg">
<g clip-path="url(#clip0_2593_1347)">
<path d="M15.8749 4.09155C15.1108 3.31997 14.2008 2.70819 13.1978 2.29185C12.1949 1.87551 11.1192 1.66295 10.0333 1.66655C5.48325 1.66655 1.77492 5.37488 1.77492 9.92488C1.77492 11.3832 2.15825 12.7999 2.87492 14.0499L1.70825 18.3332L6.08325 17.1832C7.29158 17.8416 8.64992 18.1915 10.0333 18.1915C14.5833 18.1915 18.2916 14.4832 18.2916 9.93322C18.2916 7.72488 17.4333 5.64988 15.8749 4.09155ZM10.0333 16.7915C8.79992 16.7915 7.59159 16.4582 6.53325 15.8332L6.28325 15.6832L3.68325 16.3665L4.37492 13.8332L4.20825 13.5749C3.52287 12.4808 3.15902 11.2159 3.15825 9.92488C3.15825 6.14155 6.24158 3.05822 10.0249 3.05822C11.8583 3.05822 13.5833 3.77488 14.8749 5.07488C15.5146 5.71144 16.0215 6.46867 16.3663 7.30266C16.711 8.13664 16.8868 9.03079 16.8833 9.93322C16.8999 13.7165 13.8166 16.7915 10.0333 16.7915ZM13.7999 11.6582C13.5916 11.5582 12.5749 11.0582 12.3916 10.9832C12.1999 10.9165 12.0666 10.8832 11.9249 11.0832C11.7833 11.2915 11.3916 11.7582 11.2749 11.8916C11.1583 12.0332 11.0333 12.0499 10.8249 11.9415C10.6166 11.8415 9.94992 11.6166 9.16658 10.9165C8.54992 10.3665 8.14158 9.69155 8.01658 9.48322C7.89992 9.27488 7.99992 9.16655 8.10825 9.05822C8.19992 8.96655 8.31659 8.81655 8.41659 8.69988C8.51659 8.58322 8.55825 8.49155 8.62492 8.35822C8.69159 8.21655 8.65825 8.09988 8.60825 7.99988C8.55825 7.89988 8.14158 6.88322 7.97492 6.46655C7.80825 6.06655 7.63325 6.11655 7.50825 6.10822H7.10825C6.96658 6.10822 6.74992 6.15822 6.55825 6.36655C6.37492 6.57488 5.84159 7.07488 5.84159 8.09155C5.84159 9.10822 6.58325 10.0915 6.68325 10.2249C6.78325 10.3666 8.14158 12.4499 10.2083 13.3415C10.6999 13.5582 11.0833 13.6832 11.3833 13.7749C11.8749 13.9332 12.3249 13.9082 12.6833 13.8582C13.0833 13.7999 13.9083 13.3582 14.0749 12.8749C14.2499 12.3915 14.2499 11.9832 14.1916 11.8916C14.1333 11.7999 14.0083 11.7582 13.7999 11.6582Z" fill="white"/>
</g>
<defs>
<clipPath id="clip0_2593_1347">
<rect width="20" height="20" fill="white"/>
</clipPath>
</defs>
</svg>
