<svg width="36" height="36" viewBox="0 0 36 36" fill="none" xmlns="http://www.w3.org/2000/svg">
<rect width="36" height="36" rx="18" fill="white"/>
<path d="M16.3334 20.5001L20.6584 18.0001L16.3334 15.5001V20.5001ZM25.9667 13.9751C26.0751 14.3667 26.1501 14.8917 26.2001 15.5584C26.2584 16.2251 26.2834 16.8001 26.2834 17.3001L26.3334 18.0001C26.3334 19.8251 26.2001 21.1667 25.9667 22.0251C25.7584 22.7751 25.2751 23.2584 24.5251 23.4667C24.1334 23.5751 23.4167 23.6501 22.3167 23.7001C21.2334 23.7584 20.2417 23.7834 19.3251 23.7834L18.0001 23.8334C14.5084 23.8334 12.3334 23.7001 11.4751 23.4667C10.7251 23.2584 10.2417 22.7751 10.0334 22.0251C9.92508 21.6334 9.85008 21.1084 9.80008 20.4417C9.74175 19.7751 9.71675 19.2001 9.71675 18.7001L9.66675 18.0001C9.66675 16.1751 9.80008 14.8334 10.0334 13.9751C10.2417 13.2251 10.7251 12.7417 11.4751 12.5334C11.8667 12.4251 12.5834 12.3501 13.6834 12.3001C14.7667 12.2417 15.7584 12.2167 16.6751 12.2167L18.0001 12.1667C21.4917 12.1667 23.6667 12.3001 24.5251 12.5334C25.2751 12.7417 25.7584 13.2251 25.9667 13.9751Z" fill="#9E354A"/>
</svg>
