<svg width="56" height="19" viewBox="0 0 56 19" fill="none" xmlns="http://www.w3.org/2000/svg">
<path d="M5.856 16.464C5.648 16.464 5.544 16.352 5.544 16.128C5.544 15.936 5.664 15.6 5.904 15.12C6.128 14.688 6.504 14.128 7.032 13.44C7.56 12.736 8.224 11.912 9.024 10.968C9.344 10.264 9.64 9.544 9.912 8.808C10.184 8.072 10.432 7.312 10.656 6.52799C10.96 5.45599 11.184 4.592 11.328 3.936C11.488 3.26399 11.568 2.69599 11.568 2.232C11.568 1.30399 11.216 0.839994 10.512 0.839994C9.312 0.839994 8.072 1.27199 6.792 2.13599C5.96 2.712 5.176 3.384 4.44 4.15199C3.704 4.91999 3.056 5.72 2.496 6.552C1.952 7.368 1.536 8.152 1.248 8.904C1.088 9.272 1.008 9.6 1.008 9.888C1.008 10.4 1.288 10.656 1.848 10.656C2.136 10.656 2.552 10.56 3.096 10.368C3.624 10.176 4.184 9.904 4.776 9.552C5.368 9.2 5.952 8.8 6.528 8.352C7.104 7.904 7.616 7.448 8.064 6.984C8.288 6.76 8.472 6.648 8.616 6.648C8.696 6.648 8.736 6.688 8.736 6.768C8.736 6.864 8.664 6.98399 8.52 7.128C8.008 7.64 7.4 8.168 6.696 8.712C5.992 9.24 5.28 9.72 4.56 10.152C3.84 10.584 3.168 10.92 2.544 11.16C2.032 11.368 1.552 11.472 1.104 11.472C0.368 11.472 0 11.12 0 10.416C0 9.968 0.128 9.432 0.384 8.808C0.848 7.672 1.664 6.408 2.832 5.016C3.632 4.088 4.488 3.248 5.4 2.496C6.328 1.728 7.264 1.12 8.208 0.671995C9.152 0.223995 10.04 -4.76837e-06 10.872 -4.76837e-06C12.04 -4.76837e-06 12.624 0.703995 12.624 2.112C12.624 2.64 12.552 3.232 12.408 3.888C12.264 4.54399 12.064 5.29599 11.808 6.14399C11.776 6.24 11.744 6.344 11.712 6.456C11.68 6.552 11.648 6.656 11.616 6.768C11.536 7.072 11.44 7.4 11.328 7.752C11.216 8.088 11.08 8.456 10.92 8.856C11.272 8.488 11.624 8.144 11.976 7.824C12.344 7.488 12.712 7.168 13.08 6.86399C13.336 6.656 13.632 6.424 13.968 6.168C14.304 5.896 14.688 5.6 15.12 5.28C15.728 4.81599 16.248 4.58399 16.68 4.58399C16.872 4.58399 17.016 4.63999 17.112 4.75199C17.224 4.848 17.24 4.952 17.16 5.064L16.536 6.096C16.232 6.608 15.984 7.02399 15.792 7.344C15.6 7.664 15.472 7.888 15.408 8.016C15.152 8.464 14.88 8.976 14.592 9.552C14.304 10.112 14.056 10.648 13.848 11.16C13.656 11.672 13.56 12.088 13.56 12.408C13.56 12.76 13.704 12.936 13.992 12.936C14.248 12.936 14.608 12.784 15.072 12.48C15.536 12.16 15.984 11.8 16.416 11.4C17.584 10.328 18.592 9.272 19.44 8.232C20.304 7.176 21.056 5.968 21.696 4.608C22 3.984 22.152 3.432 22.152 2.952C22.152 2.216 21.736 1.83999 20.904 1.82399C20.696 1.82399 20.592 1.77599 20.592 1.68C20.592 1.61599 20.632 1.54399 20.712 1.46399C20.936 1.24 21.224 1.128 21.576 1.128C21.976 1.128 22.312 1.264 22.584 1.536C22.856 1.792 22.992 2.16799 22.992 2.664C22.992 3.192 22.808 3.864 22.44 4.68C22.184 5.20799 21.92 5.70399 21.648 6.168C21.392 6.63199 21.12 7.06399 20.832 7.46399C20.448 7.992 20.072 8.472 19.704 8.904C19.352 9.32 18.952 9.752 18.504 10.2C18.056 10.648 17.496 11.192 16.824 11.832C16.52 12.12 16.168 12.4 15.768 12.672C15.384 12.944 15 13.168 14.616 13.344C14.232 13.504 13.896 13.584 13.608 13.584C13.064 13.584 12.792 13.264 12.792 12.624C12.792 12.272 12.888 11.808 13.08 11.232C13.16 10.96 13.272 10.656 13.416 10.32C13.56 9.984 13.72 9.616 13.896 9.216C14.008 8.992 14.144 8.72 14.304 8.4C14.464 8.064 14.648 7.696 14.856 7.29599C14.856 7.29599 14.96 7.104 15.168 6.72C15.36 6.352 15.456 6.088 15.456 5.928C15.456 5.848 15.432 5.80799 15.384 5.80799C15.336 5.80799 15.24 5.85599 15.096 5.952C14.216 6.576 13.472 7.136 12.864 7.632C12.256 8.128 11.68 8.664 11.136 9.24C10.912 9.496 10.68 9.776 10.44 10.08C10.2 10.384 9.952 10.712 9.696 11.064C9.168 12.28 8.648 13.336 8.136 14.232C7.624 15.144 7.184 15.744 6.816 16.032C6.432 16.32 6.112 16.464 5.856 16.464ZM21.5813 13.8C21.2453 13.8 20.9493 13.712 20.6933 13.536C20.2773 13.216 20.0693 12.736 20.0693 12.096C20.0693 11.456 20.2933 10.776 20.7413 10.056C21.1893 9.336 21.8693 8.672 22.7812 8.064C22.9413 7.952 23.1573 7.896 23.4293 7.896C23.7813 7.896 24.0933 7.992 24.3653 8.184C24.6533 8.376 24.7653 8.624 24.7013 8.928C24.5893 9.424 24.3413 9.864 23.9573 10.248C23.5893 10.632 23.1493 10.976 22.6373 11.28C22.1413 11.568 21.6293 11.848 21.1013 12.12C21.0853 12.168 21.0693 12.216 21.0533 12.264C21.0533 12.312 21.0533 12.36 21.0533 12.408C21.0533 12.632 21.1253 12.832 21.2693 13.008C21.4293 13.168 21.6453 13.248 21.9173 13.248C22.1253 13.248 22.3013 13.216 22.4453 13.152C22.7013 13.056 22.9093 12.968 23.0693 12.888C23.2453 12.808 23.4453 12.688 23.6693 12.528C23.8933 12.368 24.1973 12.128 24.5813 11.808C24.7573 11.68 24.8613 11.616 24.8933 11.616C24.9893 11.616 25.0213 11.688 24.9893 11.832C24.8293 12.088 24.5493 12.368 24.1493 12.672C23.7653 12.976 23.3333 13.24 22.8533 13.464C22.3893 13.688 21.9653 13.8 21.5813 13.8ZM21.2453 11.472C21.3733 11.472 21.6373 11.344 22.0373 11.088C22.4373 10.832 22.8133 10.552 23.1653 10.248C23.7733 9.688 24.0773 9.256 24.0773 8.952C24.0773 8.872 24.0533 8.8 24.0053 8.736C23.9573 8.656 23.8853 8.616 23.7893 8.616C23.4853 8.616 22.9733 8.976 22.2533 9.696C21.7573 10.176 21.4213 10.768 21.2453 11.472ZM29.0031 15.336C28.7631 15.336 28.5871 15.216 28.4751 14.976C28.4591 14.96 28.4511 14.912 28.4511 14.832C28.4511 14.752 28.4911 14.568 28.5711 14.28C28.6031 14.2 28.6271 14.12 28.6431 14.04C28.6751 13.96 28.7071 13.88 28.7391 13.8C28.7711 13.72 28.8031 13.632 28.8351 13.536C28.8671 13.424 28.8991 13.312 28.9311 13.2C28.9951 12.96 29.0271 12.76 29.0271 12.6C29.0271 12.376 28.9551 12.264 28.8111 12.264C28.7631 12.264 28.6751 12.304 28.5471 12.384C28.3391 12.544 28.1151 12.696 27.8751 12.84C27.6511 12.984 27.4111 13.12 27.1551 13.248L26.3871 13.656L25.8831 13.944C25.8351 13.96 25.7231 14.032 25.5471 14.16C25.3871 14.256 25.2191 14.304 25.0431 14.304C24.8351 14.304 24.6031 14.192 24.3471 13.968C24.1551 13.776 24.0591 13.576 24.0591 13.368C24.0591 13.192 24.1471 12.944 24.3231 12.624C24.4511 12.416 24.6671 12.16 24.9711 11.856C25.0991 11.728 25.2031 11.616 25.2831 11.52C25.3791 11.408 25.4591 11.32 25.5231 11.256C26.1951 10.36 27.2351 9.568 28.6431 8.88C29.0431 8.672 29.4031 8.568 29.7231 8.568C30.0751 8.568 30.3551 8.712 30.5631 9C30.6591 8.808 30.8111 8.536 31.0191 8.184C31.2431 7.816 31.4831 7.416 31.7391 6.984C32.0111 6.552 32.2671 6.144 32.5071 5.76C32.7631 5.376 32.9631 5.07999 33.1071 4.87199C33.5391 4.27999 33.8911 3.83199 34.1631 3.52799C34.4351 3.23999 34.6831 3.09599 34.9071 3.09599C34.9871 3.09599 35.0911 3.13599 35.2191 3.216C35.3311 3.312 35.3871 3.43999 35.3871 3.59999C35.3871 3.83999 35.2831 4.12 35.0751 4.44C34.8671 4.75999 34.5791 5.15199 34.2111 5.616C34.1791 5.664 34.1311 5.72799 34.0671 5.80799C34.0031 5.87199 33.9311 5.96 33.8511 6.072C33.6751 6.328 33.4911 6.6 33.2991 6.888C33.1071 7.16 32.8991 7.432 32.6751 7.704C32.3551 8.12 32.0191 8.576 31.6671 9.072C31.3151 9.552 30.9871 10.056 30.6831 10.584C30.4111 11.064 30.1791 11.56 29.9871 12.072C29.7951 12.568 29.6351 13.072 29.5071 13.584C29.4911 13.696 29.4751 13.784 29.4591 13.848C29.4591 13.928 29.4591 13.984 29.4591 14.016L29.4831 14.376C29.4991 14.424 29.5071 14.536 29.5071 14.712C29.5071 15.128 29.3391 15.336 29.0031 15.336ZM25.7151 13.272C25.8911 13.272 26.0511 13.24 26.1951 13.176C26.8031 12.968 27.3791 12.704 27.9231 12.384C28.4671 12.064 29.0431 11.632 29.6511 11.088C29.7311 10.864 29.8271 10.624 29.9391 10.368C30.0511 10.112 30.1711 9.832 30.2991 9.528C30.1071 9.128 29.8271 8.928 29.4591 8.928C29.2191 8.928 28.9631 9.008 28.6911 9.168C28.4191 9.328 28.1151 9.544 27.7791 9.816C27.4591 10.072 27.1311 10.36 26.7951 10.68C26.4751 11 26.1951 11.312 25.9551 11.616C25.7151 11.904 25.5471 12.144 25.4511 12.336C25.3551 12.496 25.3071 12.68 25.3071 12.888C25.3071 13.144 25.4431 13.272 25.7151 13.272ZM35.7531 15.336C35.5131 15.336 35.3371 15.216 35.2251 14.976C35.2091 14.96 35.2011 14.912 35.2011 14.832C35.2011 14.752 35.2411 14.568 35.3211 14.28C35.3531 14.2 35.3771 14.12 35.3931 14.04C35.4251 13.96 35.4571 13.88 35.4891 13.8C35.5211 13.72 35.5531 13.632 35.5851 13.536C35.6171 13.424 35.6491 13.312 35.6811 13.2C35.7451 12.96 35.7771 12.76 35.7771 12.6C35.7771 12.376 35.7051 12.264 35.5611 12.264C35.5131 12.264 35.4251 12.304 35.2971 12.384C35.0891 12.544 34.8651 12.696 34.6251 12.84C34.4011 12.984 34.1611 13.12 33.9051 13.248L33.1371 13.656L32.6331 13.944C32.5851 13.96 32.4731 14.032 32.2971 14.16C32.1371 14.256 31.9691 14.304 31.7931 14.304C31.5851 14.304 31.3531 14.192 31.0971 13.968C30.9051 13.776 30.8091 13.576 30.8091 13.368C30.8091 13.192 30.8971 12.944 31.0731 12.624C31.2011 12.416 31.4171 12.16 31.7211 11.856C31.8491 11.728 31.9531 11.616 32.0331 11.52C32.1291 11.408 32.2091 11.32 32.2731 11.256C32.9451 10.36 33.9851 9.568 35.3931 8.88C35.7931 8.672 36.1531 8.568 36.4731 8.568C36.8251 8.568 37.1051 8.712 37.3131 9C37.4091 8.808 37.5611 8.536 37.7691 8.184C37.9931 7.816 38.2331 7.416 38.4891 6.984C38.7611 6.552 39.0171 6.144 39.2571 5.76C39.5131 5.376 39.7131 5.07999 39.8571 4.87199C40.2891 4.27999 40.6411 3.83199 40.9131 3.52799C41.1851 3.23999 41.4331 3.09599 41.6571 3.09599C41.7371 3.09599 41.8411 3.13599 41.9691 3.216C42.0811 3.312 42.1371 3.43999 42.1371 3.59999C42.1371 3.83999 42.0331 4.12 41.8251 4.44C41.6171 4.75999 41.3291 5.15199 40.9611 5.616C40.9291 5.664 40.8811 5.72799 40.8171 5.80799C40.7531 5.87199 40.6811 5.96 40.6011 6.072C40.4251 6.328 40.2411 6.6 40.0491 6.888C39.8571 7.16 39.6491 7.432 39.4251 7.704C39.1051 8.12 38.7691 8.576 38.4171 9.072C38.0651 9.552 37.7371 10.056 37.4331 10.584C37.1611 11.064 36.9291 11.56 36.7371 12.072C36.5451 12.568 36.3851 13.072 36.2571 13.584C36.2411 13.696 36.2251 13.784 36.2091 13.848C36.2091 13.928 36.2091 13.984 36.2091 14.016L36.2331 14.376C36.2491 14.424 36.2571 14.536 36.2571 14.712C36.2571 15.128 36.0891 15.336 35.7531 15.336ZM32.4651 13.272C32.6411 13.272 32.8011 13.24 32.9451 13.176C33.5531 12.968 34.1291 12.704 34.6731 12.384C35.2171 12.064 35.7931 11.632 36.4011 11.088C36.4811 10.864 36.5771 10.624 36.6891 10.368C36.8011 10.112 36.9211 9.832 37.0491 9.528C36.8571 9.128 36.5771 8.928 36.2091 8.928C35.9691 8.928 35.7131 9.008 35.4411 9.168C35.1691 9.328 34.8651 9.544 34.5291 9.816C34.2091 10.072 33.8811 10.36 33.5451 10.68C33.2251 11 32.9451 11.312 32.7051 11.616C32.4651 11.904 32.2971 12.144 32.2011 12.336C32.1051 12.496 32.0571 12.68 32.0571 12.888C32.0571 13.144 32.1931 13.272 32.4651 13.272ZM40.9431 8.28C40.7351 8.28 40.6311 8.232 40.6311 8.136C40.6311 8.056 40.6871 7.944 40.7991 7.8C40.9271 7.64 41.0711 7.504 41.2311 7.392C41.5831 7.168 41.8551 6.976 42.0471 6.816C42.2551 6.656 42.5031 6.384 42.7911 6C42.8071 6.032 42.8151 6.096 42.8151 6.19199C42.8151 6.4 42.7271 6.656 42.5511 6.96C42.3911 7.248 42.2071 7.512 41.9991 7.752C41.7911 7.992 41.6071 8.144 41.4471 8.208C41.3031 8.256 41.1351 8.28 40.9431 8.28ZM38.8071 14.16C38.6791 14.16 38.5591 14.112 38.4471 14.016C38.3351 13.92 38.2791 13.792 38.2791 13.632C38.2791 13.296 38.5111 12.68 38.9751 11.784L39.2391 11.256C39.2711 11.224 39.3111 11.144 39.3591 11.016C39.4231 10.888 39.5111 10.72 39.6231 10.512C39.7351 10.288 39.8231 10.088 39.8871 9.912C39.9511 9.736 39.9991 9.568 40.0311 9.408C40.0311 9.392 40.0631 9.36 40.1271 9.312C40.1911 9.264 40.2551 9.224 40.3191 9.192L40.4631 9.168C40.5911 9.168 40.6951 9.192 40.7751 9.24C40.8711 9.288 40.9031 9.352 40.8711 9.432C40.7591 9.672 40.6631 9.88 40.5831 10.056C40.5031 10.232 40.4391 10.384 40.3911 10.512H40.3671C40.1911 10.912 40.0391 11.296 39.9111 11.664C39.7991 12.016 39.7511 12.352 39.7671 12.672L39.7911 13.32C39.7751 13.48 39.7191 13.616 39.6231 13.728C39.5591 13.776 39.4711 13.832 39.3591 13.896C39.2471 13.976 39.1031 14.056 38.9271 14.136C38.9111 14.152 38.8711 14.16 38.8071 14.16ZM41.2161 13.92C40.9281 13.92 40.7841 13.808 40.7841 13.584C40.7841 13.44 40.8321 13.256 40.9281 13.032C41.0401 12.808 41.1521 12.592 41.2641 12.384C41.5681 11.84 41.8481 11.312 42.1041 10.8C42.3601 10.288 42.6081 9.744 42.8481 9.168C42.9601 8.912 43.1281 8.784 43.3521 8.784C43.5921 8.784 43.6641 8.928 43.5681 9.216C43.4721 9.456 43.3761 9.672 43.2801 9.864C42.8321 10.776 42.6081 11.392 42.6081 11.712C42.6081 11.856 42.6561 11.944 42.7521 11.976C42.9761 11.8 43.1441 11.672 43.2561 11.592C43.3681 11.496 43.4321 11.44 43.4481 11.424C43.6721 11.248 43.9201 11.048 44.1921 10.824C44.4801 10.584 44.7921 10.312 45.1281 10.008C45.6561 9.528 46.0961 9.288 46.4481 9.288C46.8801 9.288 47.0641 9.68 47.0001 10.464C46.9841 10.768 46.9841 11.064 47.0001 11.352C47.0161 11.416 47.0241 11.512 47.0241 11.64C47.0241 11.752 47.0241 11.888 47.0241 12.048C47.0241 12.208 47.1201 12.288 47.3121 12.288C47.5361 12.288 47.7441 12.224 47.9361 12.096L48.4641 11.736L48.9921 11.4C49.0241 11.384 49.0801 11.376 49.1601 11.376C49.2561 11.376 49.2561 11.448 49.1601 11.592C48.1521 12.84 47.3201 13.464 46.6641 13.464C46.5361 13.464 46.4081 13.44 46.2801 13.392C46.1681 13.344 46.0881 13.208 46.0401 12.984C45.9921 12.744 45.9601 12.488 45.9441 12.216C45.9441 11.944 45.9441 11.736 45.9441 11.592L45.9681 10.8C45.9681 10.464 45.8801 10.296 45.7041 10.296C45.2881 10.296 44.2641 11.152 42.6321 12.864C42.5041 13.024 42.3041 13.24 42.0321 13.512C41.7601 13.784 41.4881 13.92 41.2161 13.92ZM49.1574 18.696C48.8054 18.696 48.5174 18.528 48.2934 18.192C48.0534 17.872 47.9334 17.504 47.9334 17.088C47.9334 16.752 47.9814 16.504 48.0774 16.344C48.2054 16.168 48.3254 16.08 48.4374 16.08C48.5654 16.08 48.6294 16.152 48.6294 16.296C48.6294 16.424 48.5814 16.552 48.4854 16.68C48.4214 16.76 48.3894 16.864 48.3894 16.992C48.3894 17.232 48.4694 17.472 48.6294 17.712C48.7894 17.952 48.9814 18.072 49.2054 18.072C49.2374 18.072 49.2694 18.064 49.3014 18.048C49.3334 18.048 49.3734 18.04 49.4214 18.024C50.1734 17.736 50.8614 17.136 51.4854 16.224C52.1094 15.296 52.6214 14.28 53.0214 13.176C53.4214 12.056 53.7174 11.024 53.9094 10.08L53.8134 10.056C53.7654 10.024 53.6934 10.064 53.5974 10.176C53.5014 10.272 53.4054 10.384 53.3094 10.512C53.2134 10.624 53.1494 10.704 53.1174 10.752C53.0694 10.816 52.9414 10.96 52.7334 11.184C52.5414 11.392 52.3094 11.632 52.0374 11.904C51.7654 12.16 51.4934 12.416 51.2214 12.672C50.9494 12.928 50.7174 13.136 50.5254 13.296C50.2854 13.504 49.9894 13.608 49.6374 13.608C49.5414 13.608 49.4454 13.592 49.3494 13.56C49.1734 13.464 49.0854 13.312 49.0854 13.104C49.0854 12.832 49.2454 12.416 49.5654 11.856C49.8054 11.44 50.1654 10.92 50.6454 10.296C51.1254 9.656 51.6534 9.112 52.2294 8.664C52.6454 8.328 53.0774 8.112 53.5254 8.016C53.6054 8 53.6854 7.992 53.7654 7.992C53.8454 7.976 53.9254 7.96 54.0054 7.944C54.0854 7.944 54.1574 7.944 54.2214 7.944C54.2854 7.944 54.3494 7.936 54.4134 7.92C54.4294 7.92 54.5494 7.912 54.7734 7.896C55.0134 7.864 55.1654 7.784 55.2294 7.656L55.3014 7.632C55.3654 7.632 55.4294 7.664 55.4934 7.728C55.5414 7.776 55.5654 7.872 55.5654 8.016C55.5654 8.064 55.5574 8.128 55.5414 8.208C55.5254 8.272 55.5174 8.352 55.5174 8.448V8.472C55.5174 9.064 55.4054 9.68 55.1814 10.32C54.9574 10.944 54.7174 11.584 54.4614 12.24C53.9334 13.568 53.2614 14.8 52.4454 15.936C51.6454 17.072 50.7574 17.928 49.7814 18.504C49.5734 18.632 49.3654 18.696 49.1574 18.696ZM49.8774 12.744C49.9414 12.776 49.9894 12.792 50.0214 12.792C50.1014 12.792 50.2214 12.752 50.3814 12.672C50.4934 12.608 50.6054 12.528 50.7174 12.432C50.8454 12.336 50.9894 12.224 51.1494 12.096C51.2614 12.016 51.3894 11.904 51.5334 11.76C51.6774 11.616 51.8454 11.448 52.0374 11.256L52.4934 10.824C52.7174 10.6 52.9574 10.336 53.2134 10.032C53.4694 9.728 53.6854 9.432 53.8614 9.144C54.0374 8.856 54.1254 8.632 54.1254 8.472C54.1254 8.328 54.0374 8.256 53.8614 8.256C53.6854 8.256 53.4454 8.352 53.1414 8.544C52.8534 8.736 52.5494 8.968 52.2294 9.24C51.9254 9.512 51.6614 9.776 51.4374 10.032C51.2294 10.24 51.0294 10.472 50.8374 10.728C50.6614 10.968 50.4854 11.224 50.3094 11.496C50.1014 11.8 49.9574 12.064 49.8774 12.288C49.7814 12.528 49.7814 12.68 49.8774 12.744Z" fill="#757575"/>
</svg>
