<svg width="32" height="21" viewBox="0 0 32 21" fill="none" xmlns="http://www.w3.org/2000/svg">
<path d="M31.8337 7.49967V5.83301H21.8337C20.917 5.83301 20.167 5.08301 20.167 4.16634C20.167 3.24967 20.917 2.49967 21.8337 2.49967H22.667V0.833008H21.8337C20.0003 0.833008 18.5003 2.33301 18.5003 4.16634C18.5003 5.99967 20.0003 7.49967 21.8337 7.49967H24.3337V12.4997H21.8337C19.5003 12.4997 17.667 14.333 17.667 16.6663C17.667 18.9997 19.5003 20.833 21.8337 20.833H23.5003V19.1663H21.8337C20.417 19.1663 19.3337 18.083 19.3337 16.6663C19.3337 15.2497 20.417 14.1663 21.8337 14.1663H31.8337V12.4997H26.0003V7.49967H31.8337ZM10.167 12.4997H7.66699V7.49967H10.167C12.0003 7.49967 13.5003 5.99967 13.5003 4.16634C13.5003 2.33301 12.0003 0.833008 10.167 0.833008H7.66699V2.49967H10.167C11.0837 2.49967 11.8337 3.24967 11.8337 4.16634C11.8337 5.08301 11.0837 5.83301 10.167 5.83301H0.166992V7.49967H6.00033V12.4997H0.166992V14.1663H10.167C11.5837 14.1663 12.667 15.2497 12.667 16.6663C12.667 18.083 11.5837 19.1663 10.167 19.1663H8.50033V20.833H10.167C12.5003 20.833 14.3337 18.9997 14.3337 16.6663C14.3337 14.333 12.5003 12.4997 10.167 12.4997Z" fill="#9E354A"/>
</svg>
