<svg width="40" height="60" viewBox="0 0 40 60" fill="none" xmlns="http://www.w3.org/2000/svg">
<path d="M0.241436 28.3066C4.65371 24.8043 11.1666 20.854 16.5076 23.9413C14.6995 21.756 12.9993 19.5023 11.4365 17.1973C8.77343 18.0711 5.71253 17.4593 3.8824 15.1868C1.01095 11.6213 2.88685 6.51291 1.23602 2.52228C1.02339 2.00815 1.76029 1.50343 2.15452 1.90648C4.23255 4.03051 6.5144 5.57339 9.00538 7.15648C10.3904 8.0366 11.7861 8.93941 12.6716 10.3657C13.8241 12.2221 13.8904 14.68 12.1478 16.0897C12.7276 16.8689 13.3202 17.6366 13.912 18.4049C13.7246 17.4615 13.7108 16.468 13.8912 15.4856C14.5339 11.985 17.3949 9.49327 20.2128 7.6193C20.4844 7.43879 20.9675 7.53961 21.0466 7.90004C21.6882 10.8247 23.8863 13.7611 23.2077 16.8613C22.6172 19.5588 19.9364 21.1937 17.9935 22.9445C18.0115 23.1383 18.0269 23.3307 18.05 23.5274C19.5695 25.3023 21.1473 27.0342 22.8156 28.7046C23.1601 29.0494 23.5185 29.3727 23.868 29.7094C22.9954 25.9395 24.6776 21.2364 26.8556 18.083C27.1344 17.6796 27.9033 17.9387 27.8773 18.4319C27.6328 23.0449 31.9585 25.8497 32.4123 30.2349C32.6327 32.363 31.8663 34.1535 30.0585 35.1843C30.7859 35.7776 31.5206 36.3619 32.2594 36.9415C32.3242 36.9642 32.3715 37.0057 32.4041 37.0571C34.8178 38.9473 37.2873 40.7756 39.788 42.6048C40.337 43.0064 39.7134 43.9517 39.1246 43.6012C36.8531 42.2488 34.6205 40.741 32.4381 39.116C28.3144 44.0362 20.993 42.9798 15.2979 41.7871C14.7882 41.6804 14.7223 41.0545 15.0929 40.7562C18.4661 38.0412 22.8637 34.2942 27.2886 34.9658C24.4155 32.4793 21.6667 29.8017 19.1087 26.9623C18.9998 26.9439 18.8925 26.9318 18.7839 26.9149C13.8143 31.7105 6.65722 30.7016 0.450912 29.3603C-0.0656357 29.2488 -0.142414 28.6112 0.241436 28.3066ZM6.65276 7.11507C5.28484 6.24148 4.0298 5.25837 2.8471 4.17468C3.14148 5.85389 3.12555 7.52862 3.23277 9.3101C3.49732 13.7032 6.09647 17.5469 10.8251 16.292C9.6965 14.5799 8.63517 12.846 7.66341 11.0944C7.44788 10.7058 7.97842 10.3294 8.24261 10.7022C9.40104 12.336 10.5654 13.9564 11.7487 15.5575C14.4517 11.5322 9.46214 8.90898 6.65276 7.11507ZM16.6979 40.8951C22.0183 41.8863 27.3669 42.3086 31.4568 38.3678C31.1708 38.1486 30.8817 37.936 30.5975 37.7127C28.3769 38.0405 26.2506 38.5411 24.0475 39.1365C23.4826 39.289 23.2052 38.4868 23.7551 38.2726C25.5876 37.5598 27.6637 37.15 29.6998 36.9923C29.3408 36.7025 28.9923 36.3948 28.6369 36.0989C24.1564 34.7353 20.1503 38.0046 16.6979 40.8951ZM25.9487 31.6619C26.7128 32.3505 27.4811 33.0326 28.2623 33.6962C27.5994 32.1411 27.1154 30.4425 26.969 28.8275C26.9182 28.2678 27.8113 28.0744 27.9564 28.6359C28.4887 30.6983 28.9646 32.7416 29.564 34.7865C29.5689 34.7906 29.574 34.7945 29.5788 34.7986C34.4333 31.2583 28.0933 25.0905 26.8992 20.1617C24.7811 23.8005 23.7338 28.3486 25.9487 31.6619ZM17.4608 15.7496C17.6662 15.1106 18.6716 15.2799 18.5086 15.9651C18.0103 18.0617 17.8205 20.0071 17.93 22.0706C19.2634 20.5707 21.1383 19.4177 21.9217 17.5692C23.1059 14.7749 21.0487 11.7242 20.1988 8.98409C16.1996 11.9445 11.9803 17.7518 17.016 21.7504C16.7193 19.7483 16.8533 17.6403 17.4608 15.7496ZM17.2834 26.7286C14.9504 26.5115 12.6668 26.6346 10.2827 27.0414C9.76593 27.1296 9.58941 26.2478 10.1053 26.1276C12.7691 25.5063 15.5484 25.4868 18.2335 25.9767C18.2344 25.9759 18.2354 25.9753 18.2364 25.9745C18.1744 25.9038 18.1156 25.8308 18.0538 25.76C18.0089 25.753 17.9632 25.7381 17.9185 25.705C12.4663 21.6718 6.58925 24.8916 1.91846 28.4708C7.31505 29.5415 12.6821 30.0445 17.2834 26.7286Z" fill="white"/>
</svg>
