<svg width="40" height="60" viewBox="0 0 40 60" fill="none" xmlns="http://www.w3.org/2000/svg">
<path d="M39.7586 28.3066C35.3463 24.8043 28.8334 20.854 23.4924 23.9413C25.3005 21.756 27.0007 19.5023 28.5635 17.1973C31.2266 18.0711 34.2875 17.4593 36.1176 15.1868C38.989 11.6213 37.1131 6.51291 38.764 2.52228C38.9766 2.00815 38.2397 1.50343 37.8455 1.90648C35.7674 4.03051 33.4856 5.57339 30.9946 7.15648C29.6096 8.0366 28.2139 8.93941 27.3284 10.3657C26.1759 12.2221 26.1096 14.68 27.8522 16.0897C27.2724 16.8689 26.6798 17.6366 26.088 18.4049C26.2754 17.4615 26.2892 16.468 26.1088 15.4856C25.4661 11.985 22.6051 9.49327 19.7872 7.6193C19.5156 7.43879 19.0325 7.53961 18.9534 7.90004C18.3118 10.8247 16.1137 13.7611 16.7923 16.8613C17.3828 19.5588 20.0636 21.1937 22.0065 22.9445C21.9885 23.1383 21.9731 23.3307 21.95 23.5274C20.4305 25.3023 18.8527 27.0342 17.1844 28.7046C16.8399 29.0494 16.4815 29.3727 16.132 29.7094C17.0046 25.9395 15.3224 21.2364 13.1444 18.083C12.8656 17.6796 12.0967 17.9387 12.1227 18.4319C12.3672 23.0449 8.04154 25.8497 7.58765 30.2349C7.36729 32.363 8.13368 34.1535 9.94148 35.1843C9.21411 35.7776 8.47937 36.3619 7.74065 36.9415C7.67581 36.9642 7.62848 37.0057 7.59588 37.0571C5.18218 38.9473 2.71268 40.7756 0.212047 42.6048C-0.336982 43.0064 0.286564 43.9517 0.875439 43.6012C3.1469 42.2488 5.37948 40.741 7.56195 39.116C11.6856 44.0362 19.007 42.9798 24.7021 41.7871C25.2118 41.6804 25.2777 41.0545 24.9071 40.7562C21.5339 38.0412 17.1363 34.2942 12.7114 34.9658C15.5845 32.4793 18.3333 29.8017 20.8913 26.9623C21.0002 26.9439 21.1075 26.9318 21.2161 26.9149C26.1857 31.7105 33.3428 30.7016 39.5491 29.3603C40.0656 29.2488 40.1424 28.6112 39.7586 28.3066ZM33.3472 7.11507C34.7152 6.24148 35.9702 5.25837 37.1529 4.17468C36.8585 5.85389 36.8745 7.52862 36.7672 9.3101C36.5027 13.7032 33.9035 17.5469 29.1749 16.292C30.3035 14.5799 31.3648 12.846 32.3366 11.0944C32.5521 10.7058 32.0216 10.3294 31.7574 10.7022C30.599 12.336 29.4346 13.9564 28.2513 15.5575C25.5483 11.5322 30.5379 8.90898 33.3472 7.11507ZM23.3021 40.8951C17.9817 41.8863 12.6331 42.3086 8.54324 38.3678C8.82917 38.1486 9.11835 37.936 9.40246 37.7127C11.6231 38.0405 13.7494 38.5411 15.9525 39.1365C16.5174 39.289 16.7948 38.4868 16.2449 38.2726C14.4124 37.5598 12.3363 37.15 10.3002 36.9923C10.6592 36.7025 11.0077 36.3948 11.3631 36.0989C15.8436 34.7353 19.8497 38.0046 23.3021 40.8951ZM14.0513 31.6619C13.2872 32.3505 12.5189 33.0326 11.7377 33.6962C12.4006 32.1411 12.8846 30.4425 13.031 28.8275C13.0818 28.2678 12.1887 28.0744 12.0436 28.6359C11.5113 30.6983 11.0354 32.7416 10.436 34.7865C10.4311 34.7906 10.426 34.7945 10.4212 34.7986C5.56674 31.2583 11.9067 25.0905 13.1008 20.1617C15.2189 23.8005 16.2662 28.3486 14.0513 31.6619ZM22.5392 15.7496C22.3338 15.1106 21.3284 15.2799 21.4914 15.9651C21.9897 18.0617 22.1795 20.0071 22.07 22.0706C20.7366 20.5707 18.8617 19.4177 18.0783 17.5692C16.8941 14.7749 18.9513 11.7242 19.8012 8.98409C23.8004 11.9445 28.0197 17.7518 22.984 21.7504C23.2807 19.7483 23.1467 17.6403 22.5392 15.7496ZM22.7166 26.7286C25.0496 26.5115 27.3332 26.6346 29.7173 27.0414C30.2341 27.1296 30.4106 26.2478 29.8947 26.1276C27.2309 25.5063 24.4516 25.4868 21.7665 25.9767C21.7656 25.9759 21.7646 25.9753 21.7636 25.9745C21.8256 25.9038 21.8844 25.8308 21.9462 25.76C21.9911 25.753 22.0368 25.7381 22.0815 25.705C27.5337 21.6718 33.4108 24.8916 38.0815 28.4708C32.685 29.5415 27.3179 30.0445 22.7166 26.7286Z" fill="white"/>
</svg>
