<svg width="48" height="48" viewBox="0 0 48 48" fill="none" xmlns="http://www.w3.org/2000/svg">
<path d="M0 24C0 10.7452 10.7452 0 24 0C37.2548 0 48 10.7452 48 24C48 37.2548 37.2548 48 24 48C10.7452 48 0 37.2548 0 24Z" fill="#506D4F"/>
<path d="M26.9479 27.6221C26.9479 32.8532 22.7065 37.0954 17.4739 37.0954C12.2442 37.0954 8 32.8532 8 27.6221C8 22.3896 12.2442 18.1475 17.4739 18.1475C22.7065 18.1475 26.9479 22.3889 26.9479 27.6221Z" stroke="white" stroke-width="1.37463" stroke-miterlimit="10" stroke-linecap="round" stroke-linejoin="round"/>
<path d="M40 27.6221C40 32.8532 35.7586 37.0954 30.5261 37.0954C25.2963 37.0954 21.0521 32.8532 21.0521 27.6221C21.0521 22.3896 25.2963 18.1475 30.5261 18.1475C35.7586 18.1475 40 22.3889 40 27.6221Z" stroke="white" stroke-width="1.37463" stroke-miterlimit="10" stroke-linecap="round" stroke-linejoin="round"/>
<path d="M30.5253 18.1476C31.0861 17.2644 34.3639 16.4753 34.3639 13.9137C34.3639 12.7714 33.4374 11.8435 32.2944 11.8435C31.5446 11.8435 30.8889 12.2421 30.5253 12.8374C30.161 12.2415 29.5053 11.8435 28.7548 11.8435C27.6131 11.8435 26.6866 12.7714 26.6866 13.9137C26.6866 16.4746 29.9631 17.2637 30.5253 18.1476Z" stroke="white" stroke-width="1.37463" stroke-miterlimit="10" stroke-linecap="round" stroke-linejoin="round"/>
</svg>
