<svg width="40" height="40" viewBox="0 0 40 40" fill="none" xmlns="http://www.w3.org/2000/svg">
<circle cx="20" cy="20" r="20" fill="#2C2C2C"/>
<path d="M19.9298 39.9996C8.9019 39.9612 -0.0386044 30.9576 0.000125358 19.9301C0.0388551 8.9019 9.04208 -0.0383172 20.07 0.000123501C31.0975 0.0385642 40.038 9.04179 39.9999 20.0699C39.9609 31.0978 30.9576 40.0383 19.9298 39.9996ZM20.065 1.40913C9.81408 1.37301 1.44469 9.68372 1.40885 19.9344C1.37272 30.1854 9.68344 38.5547 19.9344 38.5906C30.1854 38.6267 38.5545 30.3157 38.5903 20.065C38.6267 9.81407 30.316 1.44497 20.065 1.40913Z" fill="#2C2C2C"/>
<rect x="14" y="14" width="4.8" height="12" fill="white"/>
<rect x="21.2" y="14" width="4.8" height="12" fill="white"/>
</svg>
