<svg width="40" height="40" viewBox="0 0 40 40" fill="none" xmlns="http://www.w3.org/2000/svg">
<circle cx="20" cy="20" r="20" fill="white"/>
<path d="M29.16 20.112C29.1426 25.1269 25.063 29.1779 20.0481 29.1603C15.0337 29.1424 10.9824 25.0633 11.0001 20.0487C11.0177 15.0337 15.097 10.9824 20.112 11.0001C25.1266 11.018 29.1776 15.0973 29.16 20.112Z" fill="white"/>
<path d="M20.1115 0.403444C9.34928 0.365581 0.594337 9.05926 0.556764 19.8218C0.518901 30.5843 9.21287 39.3393 19.9754 39.3769C30.7374 39.4144 39.4926 30.7208 39.5305 19.9585C39.5678 9.19597 30.8738 0.441306 20.1115 0.403444ZM5.96824 21.2045L5.15982 21.2019C5.17543 16.7942 6.79977 12.7646 9.4701 9.65784C9.65999 9.85004 9.85075 10.0408 10.0409 10.233C7.51656 13.1912 5.98298 17.02 5.96824 21.2045ZM8.79782 21.2143L7.98941 21.2114C8.00184 17.5839 9.30738 14.2583 11.4673 11.6692L12.0393 12.2458C10.0262 14.6872 8.80967 17.8096 8.79782 21.2143ZM20.0167 27.6186C15.7484 27.6036 12.3003 24.1315 12.315 19.8634C12.33 15.5942 15.8027 12.1467 20.0708 12.1617C24.3392 12.1764 27.7867 15.6485 27.7722 19.9175C27.7569 24.1855 24.2848 27.6331 20.0167 27.6186ZM28.3344 28.2455C30.348 25.8044 31.5649 22.6803 31.5764 19.2764L32.3854 19.2793C32.3721 22.9069 31.0666 26.2322 28.907 28.8218L28.3344 28.2455ZM30.9038 30.8329C30.7134 30.6413 30.5232 30.4499 30.3333 30.2589C32.8562 27.2995 34.3901 23.4708 34.4051 19.2865L35.213 19.2891C35.1985 23.6971 33.5745 27.7273 30.9038 30.8329ZM22.653 19.8993C22.6478 21.3395 21.476 22.5043 20.0347 22.4991C18.5933 22.4939 17.4291 21.3219 17.4346 19.881C17.4395 18.4397 18.6112 17.2757 20.0526 17.2807C21.494 17.2859 22.6576 18.4579 22.653 19.8993Z" fill="#2C2C2C"/>
<path d="M19.9298 39.9996C8.9019 39.9612 -0.0386044 30.9576 0.000125358 19.9301C0.0388551 8.9019 9.04208 -0.0383172 20.07 0.000123501C31.0975 0.0385642 40.038 9.04179 39.9999 20.0699C39.9609 31.0978 30.9576 40.0383 19.9298 39.9996ZM20.065 1.40913C9.81408 1.37301 1.44469 9.68372 1.40885 19.9344C1.37272 30.1854 9.68344 38.5547 19.9344 38.5906C30.1854 38.6267 38.5545 30.3157 38.5903 20.065C38.6267 9.81407 30.316 1.44497 20.065 1.40913Z" fill="#fffff"/>
<path d="M19.9008 26.9273C15.9943 26.9134 12.828 23.7246 12.8416 19.8183C12.8552 15.9118 16.044 12.7452 19.9502 12.7588C23.8567 12.7727 27.0233 15.9616 27.0095 19.8678C26.9959 23.774 23.8067 26.9406 19.9008 26.9273ZM19.95 12.8765C16.1085 12.8629 12.9725 15.9774 12.9589 19.8189C12.9456 23.6604 16.0599 26.7963 19.9011 26.8096C23.7426 26.8232 26.8791 23.709 26.8924 19.8678C26.9057 16.026 23.7911 12.8898 19.95 12.8765Z" fill="white"/>
</svg>
