<svg width="48" height="48" viewBox="0 0 48 48" fill="none" xmlns="http://www.w3.org/2000/svg">
<path d="M0 24C0 10.7452 10.7452 0 24 0C37.2548 0 48 10.7452 48 24C48 37.2548 37.2548 48 24 48C10.7452 48 0 37.2548 0 24Z" fill="#FFFFFF4D"/>
<path d="M23.4666 11.824L26.9198 23.989C27.7721 26.9893 30.8953 28.7319 33.8962 27.8795C36.8971 27.0272 38.6384 23.9041 37.7867 20.9038L34.3328 8.73877" stroke="white" stroke-width="1.3073" stroke-miterlimit="10" stroke-linecap="round" stroke-linejoin="round"/>
<path d="M33.8962 27.8796L36.8429 38.2602" stroke="white" stroke-width="1.3073" stroke-miterlimit="10" stroke-linecap="round" stroke-linejoin="round"/>
<path d="M33.6858 39.1565L40 37.3635" stroke="white" stroke-width="1.3073" stroke-miterlimit="10" stroke-linecap="round" stroke-linejoin="round"/>
<path d="M24.6379 15.9505C24.6379 15.9505 27.6878 14.5543 31.513 15.4773C34.157 16.1153 35.614 13.251 35.614 13.251" stroke="white" stroke-width="1.3073" stroke-miterlimit="10" stroke-linecap="round" stroke-linejoin="round"/>
<path d="M24.1961 15.0302L21.0795 26.0096C20.2271 29.0098 17.104 30.7524 14.1031 29.9001C11.1022 29.0477 9.36089 25.9246 10.2126 22.9243L13.6665 10.7593" stroke="white" stroke-width="1.3073" stroke-miterlimit="10" stroke-linecap="round" stroke-linejoin="round"/>
<path d="M14.103 29.9001L11.1564 40.2801" stroke="white" stroke-width="1.3073" stroke-miterlimit="10" stroke-linecap="round" stroke-linejoin="round"/>
<path d="M14.3136 41.1763L8 39.3833" stroke="white" stroke-width="1.3073" stroke-miterlimit="10" stroke-linecap="round" stroke-linejoin="round"/>
<path d="M23.3613 17.971C23.3613 17.971 20.3114 16.5749 16.4863 17.4978C13.8422 18.1358 12.3853 15.2715 12.3853 15.2715" stroke="white" stroke-width="1.3073" stroke-miterlimit="10" stroke-linecap="round" stroke-linejoin="round"/>
<path d="M28.4023 18.7063C28.8085 18.7063 29.1377 18.3771 29.1377 17.971C29.1377 17.5648 28.8085 17.2356 28.4023 17.2356C27.9962 17.2356 27.667 17.5648 27.667 17.971C27.667 18.3771 27.9962 18.7063 28.4023 18.7063Z" fill="white"/>
<path d="M33.8962 19.4417C34.3024 19.4417 34.6316 19.1124 34.6316 18.7063C34.6316 18.3002 34.3024 17.9709 33.8962 17.9709C33.4901 17.9709 33.1609 18.3002 33.1609 18.7063C33.1609 19.1124 33.4901 19.4417 33.8962 19.4417Z" fill="white"/>
<path d="M31.4699 24.2625C31.876 24.2625 32.2052 23.9332 32.2052 23.5271C32.2052 23.121 31.876 22.7917 31.4699 22.7917C31.0637 22.7917 30.7345 23.121 30.7345 23.5271C30.7345 23.9332 31.0637 24.2625 31.4699 24.2625Z" fill="white"/>
<path d="M18.3152 20.4373C18.7213 20.4373 19.0505 20.108 19.0505 19.7019C19.0505 19.2958 18.7213 18.9666 18.3152 18.9666C17.9091 18.9666 17.5798 19.2958 17.5798 19.7019C17.5798 20.108 17.9091 20.4373 18.3152 20.4373Z" fill="white"/>
<path d="M18.6466 23.708C19.0527 23.708 19.382 23.3788 19.382 22.9727C19.382 22.5665 19.0527 22.2373 18.6466 22.2373C18.2405 22.2373 17.9113 22.5665 17.9113 22.9727C17.9113 23.3788 18.2405 23.708 18.6466 23.708Z" fill="white"/>
<path d="M15.0488 25.9114C15.455 25.9114 15.7842 25.5822 15.7842 25.176C15.7842 24.7699 15.455 24.4407 15.0488 24.4407C14.6427 24.4407 14.3135 24.7699 14.3135 25.176C14.3135 25.5822 14.6427 25.9114 15.0488 25.9114Z" fill="white"/>
</svg>
