<svg width="20" height="20" viewBox="0 0 20 20" fill="none" xmlns="http://www.w3.org/2000/svg">
<g clip-path="url(#clip0_2039_52960)">
<path d="M14.1666 1.66663H5.83329C3.53211 1.66663 1.66663 3.53211 1.66663 5.83329V14.1666C1.66663 16.4678 3.53211 18.3333 5.83329 18.3333H14.1666C16.4678 18.3333 18.3333 16.4678 18.3333 14.1666V5.83329C18.3333 3.53211 16.4678 1.66663 14.1666 1.66663Z" stroke="#506D4F" stroke-width="1.66667" stroke-linecap="round" stroke-linejoin="round"/>
<path d="M14.5833 5.41675H14.5916M13.3333 9.47508C13.4361 10.1686 13.3176 10.8769 12.9947 11.4993C12.6718 12.1216 12.1609 12.6263 11.5346 12.9415C10.9083 13.2567 10.1986 13.3664 9.50641 13.255C8.81419 13.1436 8.17472 12.8168 7.67895 12.321C7.18318 11.8253 6.85636 11.1858 6.74497 10.4936C6.63359 9.80138 6.74331 9.09166 7.05852 8.46539C7.37374 7.83913 7.87841 7.3282 8.50074 7.00528C9.12307 6.68237 9.83138 6.5639 10.5249 6.66675C11.2324 6.77165 11.8873 7.1013 12.393 7.607C12.8987 8.11271 13.2283 8.76765 13.3333 9.47508Z" stroke="#2C2C2C" stroke-width="1.66667" stroke-linecap="round" stroke-linejoin="round"/>
</g>
<defs>
<clipPath id="clip0_2039_52960">
<rect width="20" height="20" fill="white"/>
</clipPath>
</defs>
</svg>
